<svg width="81" height="82" viewBox="0 0 81 82" fill="none" xmlns="http://www.w3.org/2000/svg">
<g id="Group">
<g id="Group_2">
<path id="Vector" d="M40.4986 68.3203C55.5881 68.3203 67.8205 56.0878 67.8205 40.9984C67.8205 25.9089 55.5881 13.6765 40.4986 13.6765C25.4092 13.6765 13.1768 25.9089 13.1768 40.9984C13.1768 56.0878 25.4092 68.3203 40.4986 68.3203Z" fill="#F9EAC2"/>
<g id="Clip path group">
<mask id="mask0_1133_13968" style="mask-type:luminance" maskUnits="userSpaceOnUse" x="13" y="13" width="55" height="56">
<g id="SVGID_2_">
<path id="Vector_2" d="M40.4986 68.3203C55.5881 68.3203 67.8205 56.0878 67.8205 40.9984C67.8205 25.9089 55.5881 13.6765 40.4986 13.6765C25.4092 13.6765 13.1768 25.9089 13.1768 40.9984C13.1768 56.0878 25.4092 68.3203 40.4986 68.3203Z" fill="white"/>
</g>
</mask>
<g mask="url(#mask0_1133_13968)">
<g id="Group_3">
<g id="Group_4">
<path id="Vector_3" d="M48.3874 62.0041C36.7894 62.0041 27.3954 52.6101 27.3954 41.0121C27.3954 29.4141 36.7894 20.0201 48.3874 20.0201C54.6098 20.0201 60.2005 22.7348 64.0441 27.0353C59.2732 19.0256 50.5243 13.6633 40.5255 13.6633C25.4199 13.6633 13.1768 25.9064 13.1768 41.0121C13.1768 56.1177 25.4199 68.3608 40.5255 68.3608C50.5243 68.3608 59.2732 62.9986 64.0441 54.9888C60.2005 59.2894 54.6098 62.0041 48.3874 62.0041Z" fill="#F6DC87"/>
</g>
</g>
</g>
</g>
<path id="Vector_4" d="M40.4986 68.3203C55.5881 68.3203 67.8205 56.0878 67.8205 40.9984C67.8205 25.9089 55.5881 13.6765 40.4986 13.6765C25.4092 13.6765 13.1768 25.9089 13.1768 40.9984C13.1768 56.0878 25.4092 68.3203 40.4986 68.3203Z" stroke="#F9EAC2" stroke-miterlimit="10"/>
</g>
<g id="Group_5">
<g id="Group_6">
<path id="Vector_5" d="M39.9741 1.31247L36.2111 7.83057C35.9826 8.23375 36.2648 8.74445 36.7352 8.74445H44.2613C44.7317 8.74445 45.0273 8.23375 44.7854 7.83057L41.0224 1.31247C40.7939 0.895845 40.2026 0.895845 39.9741 1.31247Z" fill="#F6DC87" stroke="#F6DC87" stroke-miterlimit="10"/>
<path id="Vector_6" d="M41.0358 80.6976L44.7988 74.1795C45.0273 73.7763 44.7451 73.2656 44.2747 73.2656H36.7487C36.2783 73.2656 35.9826 73.7763 36.2245 74.1795L39.9875 80.6976C40.2026 81.1008 40.7939 81.1008 41.0358 80.6976Z" fill="#F6DC87" stroke="#F6DC87" stroke-miterlimit="10"/>
<path id="Vector_7" d="M80.1976 40.4744L73.6795 36.7113C73.2763 36.4829 72.7656 36.7651 72.7656 37.2355V44.7615C72.7656 45.2319 73.2763 45.5276 73.6795 45.2857L80.1976 41.5226C80.6008 41.2942 80.6008 40.7028 80.1976 40.4744Z" fill="#F6DC87" stroke="#F6DC87" stroke-miterlimit="10"/>
<path id="Vector_8" d="M0.812466 41.5361L7.33057 45.2991C7.73375 45.5276 8.24445 45.2453 8.24445 44.775V37.2489C8.24445 36.7785 7.73375 36.4829 7.33057 36.7248L0.812466 40.4878C0.395845 40.7028 0.395845 41.2942 0.812466 41.5361Z" fill="#F6DC87" stroke="#F6DC87" stroke-miterlimit="10"/>
<path id="Vector_9" d="M68.9488 68.6965L67.0001 61.4258C66.8791 60.9688 66.3147 60.821 65.9787 61.157L60.6567 66.479C60.3207 66.815 60.482 67.3794 60.9255 67.5004L68.1962 69.4491C68.6531 69.57 69.0697 69.1534 68.9488 68.6965Z" fill="#F6DC87" stroke="#F6DC87" stroke-miterlimit="10"/>
<path id="Vector_10" d="M12.0607 13.3138L14.0094 20.5845C14.1304 21.0415 14.6949 21.1893 15.0308 20.8533L20.3528 15.5313C20.6888 15.1953 20.5275 14.6309 20.084 14.5099L12.8133 12.5612C12.3564 12.4403 11.9398 12.8569 12.0607 13.3138Z" fill="#F6DC87" stroke="#F6DC87" stroke-miterlimit="10"/>
<path id="Vector_11" d="M12.8133 69.4493L20.084 67.5006C20.541 67.3796 20.6888 66.8151 20.3528 66.4792L15.0308 61.1572C14.6949 60.8212 14.1304 60.9825 14.0094 61.426L12.0607 68.6967C11.9398 69.1536 12.3564 69.5702 12.8133 69.4493Z" fill="#F6DC87" stroke="#F6DC87" stroke-miterlimit="10"/>
<path id="Vector_12" d="M68.1962 12.5612L60.9255 14.5099C60.4686 14.6309 60.3207 15.1953 60.6567 15.5313L65.9787 20.8533C66.3147 21.1893 66.8792 21.028 67.0001 20.5845L68.9488 13.3138C69.0698 12.8569 68.6532 12.4403 68.1962 12.5612Z" fill="#F6DC87" stroke="#F6DC87" stroke-miterlimit="10"/>
</g>
</g>
<path id="Vector_13" d="M48.3469 40.0171H48.1453C47.1911 40.0171 46.4116 39.2377 46.4116 38.2835V34.0769C46.4116 33.1227 47.1911 32.3433 48.1453 32.3433H48.3469C49.3011 32.3433 50.0806 33.1227 50.0806 34.0769V38.2835C50.0806 39.2377 49.3011 40.0171 48.3469 40.0171Z" fill="#231F20"/>
<path id="Vector_14" d="M32.8786 40.0171H32.677C31.7228 40.0171 30.9434 39.2377 30.9434 38.2835V34.0769C30.9434 33.1227 31.7228 32.3433 32.677 32.3433H32.8786C33.8328 32.3433 34.6123 33.1227 34.6123 34.0769V38.2835C34.6123 39.2377 33.8328 40.0171 32.8786 40.0171Z" fill="#231F20"/>
<g id="Group_7">
<path id="Vector_15" d="M40.4982 47.9736C37.6087 47.9736 35.2568 45.6217 35.2568 42.7323C35.2568 42.356 35.5525 42.0603 35.9288 42.0603C36.3051 42.0603 36.6008 42.356 36.6008 42.7323C36.6008 44.8826 38.3479 46.6297 40.4982 46.6297C42.6485 46.6297 44.3956 44.8826 44.3956 42.7323C44.3956 42.356 44.6913 42.0603 45.0676 42.0603C45.4439 42.0603 45.7396 42.356 45.7396 42.7323C45.753 45.6217 43.4011 47.9736 40.4982 47.9736Z" fill="#231F20"/>
</g>
</g>
</svg>
