<svg width="120" height="120" viewBox="0 0 120 120" fill="none" xmlns="http://www.w3.org/2000/svg">
<path d="M0 42.75C0 27.7861 0 20.3041 2.91217 14.5887C5.47379 9.56124 9.56124 5.47379 14.5887 2.91217C20.3041 0 27.7861 0 42.75 0H77.25C92.2139 0 99.6959 0 105.411 2.91217C110.439 5.47379 114.526 9.56124 117.088 14.5887C120 20.3041 120 27.7861 120 42.75V77.25C120 92.2139 120 99.6959 117.088 105.411C114.526 110.439 110.439 114.526 105.411 117.088C99.6959 120 92.2139 120 77.25 120H42.75C27.7861 120 20.3041 120 14.5887 117.088C9.56124 114.526 5.47379 110.439 2.91217 105.411C0 99.6959 0 92.2139 0 77.25V42.75Z" fill="#453682"/>
<path d="M47.8136 101.257C47.8136 101.257 45.2195 105.875 39.2309 103.633C36.3404 107.834 24.9857 109.007 25.2525 96.9222C15.5284 97.9318 9.62875 91.1024 12.7861 82.0758C12.5638 74.9198 14.2685 76.345 11.1259 72.7819C7.98336 69.2187 4.574 56.8962 19.8568 53.6002C13.3642 49.2799 14.1647 30.2913 31.4783 34.2998C27.565 27.8713 32.9607 17.4194 43.8854 22.1703C44.0633 16.2317 45.9162 15.4745 48.3324 14.0938C50.7486 12.7131 57.0782 12.4161 59.6575 19.2158C62.6221 13.4702 67.7065 10.6643 74.0954 16.3505C74.87 17.1063 75.4325 18.0529 75.7265 19.0952C76.0205 20.1375 76.0357 21.239 75.7704 22.289C75.7704 22.289 83.1821 17.2264 88.474 25.674C89.1435 27.0107 89.4557 28.4982 89.3804 29.9917C89.3051 31.4852 88.8447 32.9337 88.0441 34.1959C92.4911 32.7113 100.095 33.8693 102.645 39.9563C105.195 46.0434 102.927 51.2545 99.6804 53.7487C106.47 54.3426 113.273 59.5537 110.798 68.8179C109.316 74.8604 102.497 76.6568 102.497 76.6568C102.497 76.6568 109.997 81.5116 107.166 90.1374C104.335 98.7632 95.3076 96.8332 94.3737 96.848C95.0111 101.48 93.4398 104.479 89.1855 106.246C84.9312 108.013 80.9141 104.538 80.4546 103.603C78.8685 104.702 72.9243 104.479 71.5606 100.634C70.1968 96.7886 50.7338 98.6741 47.8136 101.257Z" fill="white"/>
<mask id="mask0_208_4737" style="mask-type:luminance" maskUnits="userSpaceOnUse" x="31" y="47" width="58" height="58">
<path d="M53.5946 47.5725C53.5946 47.5725 27.1646 53.5111 32.1749 81.4373C38.1931 79.0025 45.5158 84.0206 39.8978 91.518C41.1845 91.1269 42.5582 91.1281 43.8442 91.5215C45.1301 91.9149 46.2701 92.6827 47.1189 93.7271C47.9678 94.7715 48.4871 96.0453 48.6108 97.3863C48.7345 98.7273 48.4569 100.075 47.8135 101.257C55.4326 106.468 68.4623 103.083 71.7383 101.45C69.1442 98.6889 72.4795 89.4841 79.5057 91.8892C75.9333 86.2476 78.8387 77.9781 87.4955 81.4967C89.378 79.7448 88.0439 70.1243 88.0439 70.1243C85.844 69.0306 84.1161 67.1733 83.1819 64.8983C79.8911 67.8676 73.3392 70.3173 70.8489 60.1029C61.9253 62.4784 53.9503 58.7074 53.5946 47.5725Z" fill="white"/>
</mask>
<g mask="url(#mask0_208_4737)">
<path d="M59.3911 104.954C75.4616 104.954 88.4893 91.9062 88.4893 75.8106C88.4893 59.715 75.4616 46.667 59.3911 46.667C43.3207 46.667 30.293 59.715 30.293 75.8106C30.293 91.9062 43.3207 104.954 59.3911 104.954Z" fill="#FBEBD7"/>
<mask id="mask1_208_4737" style="mask-type:luminance" maskUnits="userSpaceOnUse" x="30" y="46" width="59" height="59">
<path d="M59.395 104.954C75.4655 104.954 88.4932 91.9059 88.4932 75.8104C88.4932 59.7148 75.4655 46.6667 59.395 46.6667C43.3246 46.6667 30.2969 59.7148 30.2969 75.8104C30.2969 91.9059 43.3246 104.954 59.395 104.954Z" fill="white"/>
</mask>
<g mask="url(#mask1_208_4737)">
<path d="M82.0269 75.4689C81.2857 74.1921 80.4111 75.365 81.3302 76.716C81.9129 77.5317 82.2705 78.487 82.3668 79.4853C82.4631 80.4837 82.2947 81.4898 81.8786 82.4022C80.8114 84.3768 79.2549 82.5507 78.914 81.5856C78.573 80.6206 77.1648 80.5612 76.2458 82.3577C75.3267 84.1541 78.2766 85.5793 77.3427 87.1531C76.4088 88.7268 76.7201 86.3514 75.1192 86.4701C73.5183 86.5889 75.6677 90.5529 73.6369 91.3843C71.6061 92.2157 72.9402 94.3536 70.3165 95.4225C67.6927 96.4915 65.5878 95.1553 66.8478 93.448C68.1078 91.7406 62.8751 94.4575 58.947 92.869C55.0188 91.2804 48.0222 88.222 45.3095 79.4181C43.59 73.4795 45.4133 73.8952 45.8135 73.8506C46.5265 73.9329 47.1878 74.264 47.6812 74.786C47.785 75.1423 47.3107 72.5738 43.3973 74.0585C39.484 75.5431 39.9138 66.947 45.606 68.1199C47.6664 62.2852 53.0176 53.1695 69.9755 54.283C69.9755 54.283 60.6665 47.0973 45.6505 54.8323C44.1681 55.5746 44.9241 56.4357 44.9389 57.4156C44.9538 58.3955 42.9971 59.9395 42.0929 58.9596C41.1886 57.9798 39.8249 59.0339 39.7656 59.0784C33.3026 66.1453 31.7758 77.4138 35.1259 86.0247C35.1259 85.906 35.1259 85.327 35.8522 87.3312C36.3118 88.3408 36.7416 89.2167 37.1567 90.0184C37.7419 90.9091 38.4014 91.7484 39.1282 92.5275C43.9902 97.8128 43.4418 92.5275 45.2206 92.5275C46.9994 92.5275 49.6676 96.343 48.1852 96.833C46.7029 97.3229 46.9549 99.1193 49.1784 99.9062C51.4019 100.693 63.1568 103.811 71.3096 98.7185C79.4624 93.6261 84.5617 82.6843 84.1614 77.9334C83.7612 73.1825 82.7532 76.7754 82.0269 75.4689ZM44.3015 67.2736C44.3015 67.2736 41.3369 67.8081 40.6105 69.7975C40.822 69.0038 41.3109 68.3125 41.9882 67.8493C42.6656 67.3862 43.4865 67.1819 44.3015 67.2736ZM43.7975 83.8275C43.7113 84.6322 43.4616 85.4109 43.064 86.1155C42.6663 86.8202 42.129 87.436 41.4851 87.9251C40.4623 88.3408 39.3061 87.7618 39.6915 87.1679C39.6915 87.1679 40.5809 86.5889 40.2103 84.1986C39.8397 81.8083 41.322 81.8529 41.9594 81.9123C42.4476 81.9486 42.9052 82.1641 43.2444 82.5176C43.5836 82.871 43.7806 83.3375 43.7975 83.8275ZM64.6688 96.4024C64.0314 96.2094 63.8535 97.1744 61.9858 97.8871C61.6646 97.9922 61.3247 98.0278 60.9888 97.9916C60.6528 97.9554 60.3283 97.8481 60.0369 97.6769C59.7454 97.5056 59.4935 97.2744 59.298 96.9983C59.1024 96.7223 58.9676 96.4079 58.9025 96.0758C58.8933 95.8184 58.957 95.5636 59.0861 95.3408C59.2153 95.1181 59.4048 94.9365 59.6326 94.8169C59.8604 94.6974 60.1173 94.6449 60.3737 94.6653C60.6301 94.6858 60.8755 94.7785 61.0815 94.9326C62.3563 95.764 64.7874 94.8435 64.7874 94.8435C66.1215 94.5911 65.2914 96.5954 64.6688 96.4024Z" fill="#F8D57E"/>
<path d="M68.1959 90.8647C68.6999 92.1563 68.9371 93.834 68.1959 94.1309C68.9879 93.9407 69.6836 93.468 70.1529 92.8013C70.6222 92.1345 70.8328 91.3194 70.7455 90.5084C70.6269 87.4351 67.6771 89.573 68.1959 90.8647Z" fill="#F8D57E"/>
<path d="M84.0286 68.1644C83.7434 67.8611 83.3884 67.6322 82.9946 67.4978C82.6008 67.3635 82.1801 67.3277 81.7693 67.3936C81.3585 67.4595 80.97 67.625 80.6378 67.8759C80.3056 68.1267 80.0397 68.4551 79.8633 68.8325C80.3437 68.5384 80.9181 68.4391 81.4692 68.555C82.0202 68.6709 82.5062 68.9932 82.8279 69.4561C82.9562 69.6376 83.0421 69.8457 83.0793 70.0649C83.1165 70.2842 83.104 70.509 83.0429 70.7228C82.9817 70.9365 82.8733 71.1338 82.7258 71.3C82.5783 71.4662 82.3953 71.5971 82.1905 71.683C80.7082 72.4699 82.1905 74.3554 82.6797 74.296C82.5663 73.8425 82.5935 73.3652 82.7577 72.9276C82.9219 72.49 83.2153 72.1128 83.5988 71.8463C83.9022 71.6594 84.1594 71.4061 84.351 71.1053C84.5426 70.8045 84.6636 70.4641 84.705 70.1098C84.7464 69.7554 84.707 69.3962 84.5899 69.0593C84.4727 68.7224 84.2808 68.4164 84.0286 68.1644Z" fill="#F8D57E"/>
<path d="M35.1699 86.0693C35.1699 86.0693 38.1346 94.5021 43.1745 96.7588C40.7507 94.9678 38.7598 92.6541 37.3489 89.9888C36.482 88.7659 35.7513 87.4516 35.1699 86.0693Z" fill="#F8D57E"/>
<path d="M35.1406 86.0247C35.6798 87.4219 36.3603 88.7601 37.1714 90.0184C36.7564 89.2167 36.3265 88.3408 35.867 87.3312C35.1999 85.327 35.1406 85.906 35.1406 86.0247Z" fill="#F8D57E"/>
<path d="M73.5626 88.1627C73.6774 88.6636 73.6685 89.185 73.5368 89.6816C73.405 90.1783 73.1544 90.6354 72.8066 91.0132C73.2616 90.7953 73.6269 90.4261 73.8405 89.9686C74.054 89.5111 74.1025 88.9935 73.9777 88.5042C73.8442 88.1556 73.7896 87.7817 73.8178 87.4095C73.846 87.0372 73.9563 86.6759 74.1407 86.3514C73.9211 86.5947 73.7559 86.8821 73.6561 87.1945C73.5564 87.5069 73.5246 87.837 73.5626 88.1627Z" fill="#F8D57E"/>
</g>
</g>
<path d="M32.2794 69.1445C32.2794 69.1445 21.4288 75.3652 17.3375 75.6918C13.2463 76.0184 9.5701 72.7225 8.44353 75.6918C7.31696 78.6611 14.1505 84.0207 19.3535 84.1988C24.5565 84.377 30.4858 76.2114 32.2794 72.871C34.073 69.5305 32.2794 69.1445 32.2794 69.1445Z" fill="#FBEBD7"/>
<path d="M87.6439 72.4999C87.5477 72.1687 87.5512 71.8164 87.654 71.4873C87.7568 71.1581 87.9544 70.8666 88.2219 70.6494C88.4894 70.4322 88.815 70.2989 89.1578 70.2663C89.5006 70.2336 89.8454 70.3031 90.149 70.4659C93.588 72.3068 99.8138 75.4543 102.69 75.6918C106.781 76.0185 110.457 72.7226 111.584 75.6918C112.71 78.6611 105.832 84.0207 100.674 84.1989C95.5151 84.377 89.9119 76.2115 87.7477 72.871C87.6896 72.7551 87.6544 72.6291 87.6439 72.4999Z" fill="#FBEBD7"/>
<path fill-rule="evenodd" clip-rule="evenodd" d="M62.0409 42.8045C62.0409 42.8046 62.0408 42.8047 62.0144 42.792C61.988 42.7794 61.988 42.7793 61.988 42.7793L61.9891 42.7771L61.9923 42.7703C61.9952 42.7642 61.9995 42.7551 62.0051 42.7432C62.0164 42.7193 62.0329 42.6839 62.0543 42.6378C62.0969 42.5457 62.1586 42.4109 62.2344 42.2405C62.3861 41.8998 62.5945 41.4166 62.8217 40.8472C63.2761 39.7081 63.8049 38.2247 64.1036 36.8454C64.253 36.1557 64.3447 35.493 64.3411 34.913C64.3375 34.3324 64.2384 33.8379 64.0097 33.4817C63.782 33.1273 63.424 32.9069 62.8937 32.8767C62.3616 32.8465 61.6558 33.0079 60.7368 33.4209C59.8217 33.8322 58.9075 34.6259 58.0564 35.694C57.2056 36.7618 56.4191 38.1022 55.7589 39.6046C54.4384 42.6096 53.6243 46.2596 53.8093 49.6662C53.9943 53.0727 55.178 56.2325 57.8492 58.2635C60.5205 60.2947 64.6856 61.2017 70.8439 60.089C70.8594 60.0862 70.8743 60.0962 70.8777 60.1116C71.892 64.7239 73.866 66.8294 76.127 67.3288C78.391 67.8288 80.9573 66.7221 83.1633 64.8759C83.1707 64.8698 83.1806 64.8676 83.1898 64.8701C83.1991 64.8727 83.2065 64.8796 83.2097 64.8886C84.2211 67.7353 86.8802 69.712 89.6567 70.4933C92.4346 71.275 95.3171 70.8573 96.7814 68.9338C96.7912 68.9209 96.8096 68.9184 96.8225 68.9282C96.8354 68.938 96.8378 68.9564 96.828 68.9692C95.3425 70.9206 92.4291 71.3343 89.6408 70.5497C86.864 69.7683 84.1985 67.7956 83.1687 64.9478C80.9645 66.7823 78.3936 67.8893 76.1143 67.386C73.8254 66.8805 71.8449 64.7548 70.8266 60.1517C64.6744 61.2583 60.4989 60.3518 57.8137 58.3102C55.1244 56.2654 53.9364 53.0867 53.7508 49.6694C53.5652 46.2522 54.3817 42.593 55.7053 39.5811C56.3671 38.075 57.1561 36.7299 58.0106 35.6575C58.8649 34.5853 59.7861 33.7839 60.7128 33.3675C61.6355 32.9528 62.3514 32.7872 62.897 32.8182C63.4445 32.8494 63.8204 33.0786 64.059 33.4501C64.2964 33.8197 64.396 34.3272 64.3996 34.9126C64.4033 35.4986 64.3108 36.1658 64.1609 36.8578C63.8612 38.2418 63.331 39.7286 62.8761 40.8689C62.6486 41.4392 62.4398 41.923 62.2879 42.2643C62.212 42.435 62.1502 42.57 62.1074 42.6624C62.0861 42.7086 62.0694 42.7442 62.0581 42.7682C62.0525 42.7802 62.0481 42.7893 62.0452 42.7954L62.042 42.8023L62.0409 42.8045ZM62.0018 42.8185C61.9872 42.8115 61.981 42.794 61.988 42.7794L62.0144 42.792L62.0408 42.8047C62.0338 42.8193 62.0164 42.8254 62.0018 42.8185Z" fill="white"/>
<path fill-rule="evenodd" clip-rule="evenodd" d="M88.0389 70.0956C88.0548 70.0926 88.0701 70.1031 88.0731 70.119C88.3979 71.8687 88.5569 73.6451 88.5479 75.4247C88.545 77.5082 88.3212 79.5856 87.8802 81.6218C87.8768 81.6376 87.8612 81.6476 87.8454 81.6442C87.8296 81.6408 87.8195 81.6252 87.8229 81.6094C88.2631 79.5772 88.4864 77.504 88.4893 75.4245L88.4893 75.4244C88.4983 73.6485 88.3397 71.8757 88.0155 70.1297C88.0125 70.1138 88.023 70.0985 88.0389 70.0956Z" fill="white"/>
<path fill-rule="evenodd" clip-rule="evenodd" d="M47.7899 101.245C47.7968 101.23 47.8143 101.224 47.8289 101.231C51.5616 102.993 55.6316 103.923 59.7579 103.956C63.8842 103.989 67.9686 103.125 71.7292 101.424C71.7439 101.417 71.7613 101.424 71.7679 101.438C71.7746 101.453 71.7681 101.47 71.7533 101.477C67.9851 103.182 63.8923 104.048 59.7574 104.014C55.6226 103.981 51.5443 103.049 47.8039 101.284C47.7893 101.277 47.783 101.26 47.7899 101.245Z" fill="white"/>
<path fill-rule="evenodd" clip-rule="evenodd" d="M53.6238 47.5659C53.6274 47.5817 53.6175 47.5974 53.6018 47.6011C46.2714 49.2889 39.9048 53.8115 35.8906 60.1824C31.8765 66.5533 30.5407 74.2556 32.1745 81.6091C32.178 81.6249 32.168 81.6406 32.1522 81.6441C32.1364 81.6476 32.1208 81.6376 32.1173 81.6218C30.4801 74.2532 31.8187 66.5352 35.8411 60.1512C39.8634 53.7672 46.2431 49.2353 53.5886 47.544C53.6044 47.5403 53.6201 47.5502 53.6238 47.5659Z" fill="white"/>
<path fill-rule="evenodd" clip-rule="evenodd" d="M32.2641 68.6452C32.2775 68.6361 32.2957 68.6396 32.3048 68.653C32.3139 68.6664 32.3104 68.6846 32.297 68.6937L32.2831 68.6733C32.297 68.6937 32.2969 68.6937 32.2968 68.6938L32.2871 68.7004C32.2806 68.7048 32.2708 68.7113 32.258 68.7199C32.2322 68.7372 32.194 68.7627 32.1439 68.796C32.0437 68.8624 31.8961 68.9596 31.7065 69.0823C31.3274 69.3278 30.7803 69.6759 30.1082 70.0861C28.7642 70.9064 26.9202 71.9753 24.9208 72.9696C22.9217 73.9638 20.7661 74.8838 18.7991 75.4058C16.8336 75.9274 15.0495 76.0534 13.798 75.451C12.5584 74.8543 11.5381 74.5486 10.7312 74.4667C9.9241 74.3847 9.33366 74.527 8.94983 74.8224C8.56691 75.1171 8.38475 75.5679 8.40144 76.1147C8.41814 76.6623 8.63441 77.305 9.04772 77.9777C9.46089 78.6501 10.4732 79.9051 11.9096 81.1066C13.346 82.3081 15.2044 83.4543 17.3097 83.9123C19.4139 84.37 21.7661 84.1405 24.1928 82.5886C26.6203 81.0361 29.1243 78.1591 31.528 73.3182C31.5352 73.3037 31.5527 73.2978 31.5672 73.305C31.5817 73.3122 31.5876 73.3298 31.5804 73.3443C29.174 78.1907 26.664 81.0778 24.2243 82.638C21.7839 84.1987 19.4157 84.4304 17.2972 83.9695C15.1796 83.5089 13.3128 82.3567 11.872 81.1516C10.4314 79.9466 9.41473 78.6869 8.9978 78.0084C8.581 77.33 8.35998 76.6773 8.34287 76.1165C8.32574 75.555 8.51324 75.0844 8.9141 74.776C9.31406 74.4682 9.92153 74.3256 10.7371 74.4084C11.553 74.4912 12.5801 74.7997 13.8234 75.3982C15.0548 75.9909 16.8209 75.8701 18.784 75.3492C20.7456 74.8286 22.8972 73.9105 24.8948 72.9171C26.8921 71.9238 28.7345 70.8558 30.0777 70.0361C30.7492 69.6262 31.2959 69.2784 31.6747 69.0331C31.8641 68.9105 32.0114 68.8135 32.1115 68.7471C32.1615 68.714 32.1997 68.6885 32.2253 68.6713C32.2382 68.6627 32.2479 68.6561 32.2544 68.6518L32.264 68.6453C32.2641 68.6452 32.2641 68.6452 32.2778 68.6653L32.2641 68.6452Z" fill="white"/>
<path fill-rule="evenodd" clip-rule="evenodd" d="M91.6359 71.0006C91.644 70.9866 91.6619 70.9817 91.6759 70.9897C93.8989 72.2588 96.7433 73.7425 99.4407 74.7234C100.789 75.2138 102.1 75.5782 103.278 75.7274C104.456 75.8767 105.497 75.8104 106.309 75.4426C107.556 74.8405 108.585 74.5264 109.401 74.4383C110.217 74.3501 110.825 74.4875 111.224 74.7926C111.624 75.0983 111.81 75.5686 111.792 76.1339C111.773 76.6986 111.551 77.3595 111.135 78.0526C110.718 78.7462 109.701 80.0133 108.26 81.2211C106.82 82.429 104.953 83.5794 102.835 84.0363C100.717 84.4934 98.3484 84.2562 95.908 82.6908C93.4684 81.126 90.9583 78.2352 88.5519 73.3888C88.5447 73.3743 88.5506 73.3567 88.5651 73.3495C88.5796 73.3423 88.5972 73.3482 88.6044 73.3627C91.0081 78.2036 93.512 81.0844 95.9396 82.6415C98.3663 84.198 100.718 84.4331 102.823 83.979C104.928 83.5248 106.786 82.3804 108.223 81.1762C109.659 79.9719 110.671 78.7096 111.084 78.0224C111.498 77.3348 111.715 76.6836 111.733 76.132C111.751 75.5811 111.57 75.1309 111.188 74.8391C110.805 74.5466 110.215 74.4093 109.408 74.4965C108.6 74.5837 107.578 74.8951 106.334 75.4955L106.334 75.4958C105.508 75.8701 104.454 75.9355 103.271 75.7856C102.087 75.6356 100.772 75.2697 99.4206 74.7784C96.7186 73.7959 93.8709 72.3103 91.6469 71.0406C91.6328 71.0326 91.6279 71.0147 91.6359 71.0006Z" fill="white"/>
<path fill-rule="evenodd" clip-rule="evenodd" d="M35.3183 80.6212C36.7946 80.6206 38.2266 81.1262 39.3761 82.0539C40.5257 82.9816 41.3234 84.2756 41.6366 85.7205C41.9499 87.1654 41.7598 88.6742 41.0979 89.9958C40.443 91.3036 39.3652 92.3501 38.0409 92.9655L38.1639 93.0681C38.9501 92.3783 39.8913 91.8892 40.9074 91.6428C41.9316 91.3943 43.0009 91.3999 44.0224 91.6591C45.044 91.9182 45.987 92.423 46.7697 93.1298C47.5523 93.8366 48.151 94.7239 48.5137 95.7149C48.8765 96.7058 48.9923 97.7705 48.8513 98.8164C48.7102 99.8624 48.3165 100.858 47.7042 101.717C47.092 102.576 46.2797 103.273 45.3379 103.746C44.3961 104.22 43.3532 104.456 42.2996 104.434M35.3184 80.6798C34.2189 80.6866 33.1404 80.9821 32.1906 81.5369C32.1766 81.5451 32.1586 81.5404 32.1505 81.5264C32.1423 81.5124 32.147 81.4945 32.161 81.4863C33.1197 80.9263 34.2083 80.628 35.3182 80.6212L35.3183 80.6212" fill="white"/>
<path fill-rule="evenodd" clip-rule="evenodd" d="M62.9483 14.9357C64.5585 13.7248 66.5604 13.156 68.5657 13.3398C70.5709 13.5235 72.4365 14.4467 73.8006 15.9302C75.1646 17.4136 75.9299 19.3517 75.948 21.3683C75.948 21.3689 75.948 21.3694 75.948 21.37C75.9316 21.7011 75.8959 22.0309 75.8411 22.3577C77.4939 21.1947 79.5015 20.6469 81.5163 20.8104C83.5547 20.9758 85.4688 21.8587 86.9194 23.3026C88.3699 24.7464 89.2632 26.6581 89.4409 28.6986C89.6157 30.705 89.0875 32.7086 87.9488 34.3662C90.4769 33.2944 93.3068 33.1682 95.9216 34.0129C98.569 34.868 100.815 36.6596 102.239 39.0528C103.663 41.4459 104.168 44.2767 103.66 47.0157C103.156 49.7271 101.694 52.1648 99.5423 53.8827H99.9029C102.528 53.8883 105.071 54.7973 107.105 56.4575C109.14 58.1176 110.544 60.4279 111.08 63.0011C111.617 65.5743 111.254 68.254 110.052 70.591C108.851 72.928 106.883 74.7803 104.48 75.8374C104.465 75.8439 104.448 75.8372 104.442 75.8223C104.435 75.8075 104.442 75.7902 104.457 75.7837C106.847 74.7321 108.805 72.8893 110 70.5642C111.196 68.2391 111.557 65.5731 111.023 63.013C110.489 60.453 109.093 58.1545 107.068 56.5029C105.044 54.8512 102.514 53.9469 99.9029 53.9413H99.4582C99.4518 53.9413 99.4457 53.9392 99.4408 53.9356C99.4361 53.9322 99.4325 53.9273 99.4305 53.9216C99.4264 53.9098 99.4303 53.8967 99.4401 53.889C101.617 52.1772 103.096 49.7301 103.602 47.005C104.108 44.2799 103.605 41.4636 102.189 39.0827C100.772 36.7018 98.5374 34.9194 95.9036 34.0686C93.2698 33.2179 90.4168 33.3571 87.878 34.4603C87.866 34.4656 87.8519 34.4621 87.8436 34.452C87.8353 34.4418 87.8348 34.4273 87.8424 34.4166C89.0134 32.7543 89.5591 30.7304 89.3826 28.7036C89.206 26.6769 88.3188 24.7782 86.878 23.3441C85.4373 21.91 83.5362 21.0331 81.5116 20.8688C79.487 20.7045 77.4697 21.2634 75.8172 22.4465C75.8075 22.4534 75.7946 22.4538 75.7845 22.4475C75.7745 22.4411 75.7692 22.4293 75.7713 22.4176C75.8325 22.0705 75.872 21.72 75.8894 21.368C75.8713 19.3662 75.1115 17.4424 73.7574 15.9698C72.4032 14.497 70.5511 13.5805 68.5603 13.3981C66.5696 13.2157 64.5821 13.7803 62.9835 14.9825C61.3849 16.1847 60.2891 17.9387 59.9087 19.9043C59.906 19.9181 59.8939 19.9281 59.8799 19.9281C59.8659 19.9281 59.8538 19.9181 59.8512 19.9043C59.4703 17.9376 58.3734 16.1828 56.7732 14.9807C55.1731 13.7786 53.184 13.215 51.1923 13.3994C49.2005 13.5838 47.3483 14.5029 45.9952 15.9784C44.6423 17.4537 43.885 19.3799 43.8704 21.383C43.8829 21.7348 43.9174 22.0854 43.9738 22.4328C43.9757 22.4445 43.9703 22.4562 43.9602 22.4624C43.9502 22.4687 43.9373 22.4682 43.9277 22.4613C42.4823 21.4189 40.7454 20.8597 38.9643 20.8634L38.9639 20.8634C37.8229 20.8516 36.691 21.067 35.6339 21.4971C34.5768 21.9272 33.6155 22.5634 32.8059 23.3687C31.9963 24.174 31.3546 25.1325 30.918 26.1883C30.4814 27.2441 30.2586 28.3764 30.2626 29.5192V29.5194C30.2555 31.2901 30.8032 33.0184 31.8284 34.461C31.836 34.4717 31.8356 34.4861 31.8274 34.4963C31.8192 34.5066 31.8052 34.5101 31.7931 34.505C29.2579 33.4312 26.4202 33.3136 23.8051 34.1742C21.1901 35.0347 18.9749 36.815 17.5696 39.1855C16.1643 41.556 15.6641 44.3562 16.1616 47.0677C16.659 49.7792 18.1205 52.2183 20.2754 53.9336C20.2852 53.9414 20.2889 53.9545 20.2848 53.9662C20.2807 53.978 20.2696 53.9858 20.2572 53.9858H19.8126C17.2324 54.0004 14.7337 54.8924 12.7259 56.5157C10.7182 58.1389 9.32053 60.3972 8.76206 62.9202C8.20359 65.4433 8.51743 68.0815 9.65214 70.4025C10.7868 72.7235 12.6751 74.5896 15.0074 75.695C15.0221 75.7019 15.0283 75.7194 15.0214 75.734C15.0144 75.7486 14.997 75.7549 14.9824 75.7479C12.638 74.6369 10.74 72.7612 9.5995 70.4283C8.45896 68.0953 8.14351 65.4436 8.70485 62.9076C9.26618 60.3715 10.671 58.1017 12.6891 56.4701C14.7072 54.8385 17.2188 53.9419 19.8123 53.9273H20.1738C18.0435 52.206 16.5989 49.7763 16.1039 47.0783C15.6039 44.3529 16.1067 41.5383 17.5192 39.1556C18.9317 36.7729 21.1583 34.9835 23.7868 34.1185C26.3832 33.2641 29.198 33.3689 31.7223 34.4118C30.7276 32.9763 30.197 31.2683 30.204 29.5193C30.2 28.3687 30.4243 27.2289 30.8639 26.1659C31.3034 25.1029 31.9495 24.138 32.7646 23.3272C33.5797 22.5164 34.5475 21.8759 35.6118 21.4428C36.6761 21.0098 37.8157 20.793 38.9643 20.8048C40.7344 20.8012 42.4611 21.3496 43.905 22.373C43.8547 22.0456 43.8236 21.7155 43.8118 21.3844L43.8118 21.3832C43.8263 19.3654 44.5891 17.4249 45.952 15.9388C47.3149 14.4526 49.1806 13.5268 51.1869 13.341C53.1931 13.1553 55.1966 13.723 56.8084 14.9338C58.3816 16.1157 59.4719 17.8279 59.8799 19.7514C60.2875 17.8291 61.3766 16.1176 62.9483 14.9357Z" fill="white"/>
<path fill-rule="evenodd" clip-rule="evenodd" d="M84.3541 80.547L84.3542 80.547C85.469 80.5519 86.5629 80.8502 87.5262 81.4121C87.5402 81.4202 87.5449 81.4382 87.5368 81.4521C87.5286 81.4661 87.5107 81.4708 87.4967 81.4627C86.5423 80.906 85.4585 80.6105 84.3541 80.6056C82.8925 80.6083 81.4758 81.1117 80.3393 82.0322C79.2028 82.9527 78.4148 84.2349 78.1063 85.6659C77.7978 87.0969 77.9873 88.5905 78.6434 89.8986C79.2995 91.2068 80.3826 92.2509 81.7129 92.8574C81.7222 92.8616 81.7287 92.8705 81.7298 92.8807C81.731 92.8909 81.7268 92.9009 81.7186 92.9072L81.5259 93.0557C81.5149 93.0641 81.4995 93.0638 81.489 93.0548C80.5988 92.2948 79.5182 91.7929 78.364 91.6033C77.2097 91.4137 76.0257 91.5436 74.9398 91.9789C73.8538 92.4143 72.9073 93.1385 72.2025 94.0735C71.4977 95.0084 71.0613 96.1185 70.9405 97.2838C70.8198 98.449 71.0193 99.6252 71.5174 100.685C72.0155 101.745 72.7933 102.649 73.7668 103.298C74.7403 103.948 75.8725 104.318 77.041 104.37C78.2096 104.422 79.37 104.153 80.3971 103.592C80.4098 103.585 80.4258 103.589 80.4345 103.6C81.4153 104.903 82.7801 105.864 84.3361 106.347C85.892 106.831 87.5603 106.812 89.1049 106.293C90.6496 105.775 91.9924 104.783 92.9435 103.459C93.8945 102.134 94.4057 100.543 94.4047 98.9119C94.3917 98.216 94.2874 97.5248 94.0945 96.8561C94.0916 96.8459 94.0944 96.8348 94.102 96.8272C94.1096 96.8197 94.1207 96.8169 94.131 96.8199C95.0678 97.0958 96.0372 97.2452 97.0135 97.2641C98.4287 97.2641 99.8299 96.9849 101.137 96.4425C102.445 95.9001 103.633 95.105 104.634 94.1027C105.634 93.1004 106.428 91.9105 106.97 90.601C107.511 89.2914 107.79 87.8878 107.79 86.4703V86.4702C107.796 84.9928 107.494 83.5304 106.903 82.1766C106.897 82.1618 106.903 82.1445 106.918 82.138C106.933 82.1315 106.95 82.1383 106.957 82.1531C107.551 83.5144 107.855 84.9849 107.849 86.4705C107.849 87.8956 107.568 89.3067 107.024 90.6233C106.479 91.94 105.681 93.1364 104.675 94.1441C103.669 95.1518 102.474 95.9512 101.16 96.4966C99.8452 97.042 98.4362 97.3227 97.0132 97.3227L97.0127 97.3227C96.0487 97.3041 95.0915 97.1589 94.1654 96.891C94.3504 97.5488 94.4505 98.2277 94.4633 98.9111L94.4633 98.9117C94.4643 100.556 93.9493 102.158 92.9911 103.493C92.0329 104.828 90.6799 105.827 89.1236 106.349C87.5673 106.871 85.8864 106.89 84.3187 106.403C82.759 105.919 81.3899 104.958 80.4029 103.656C79.372 104.213 78.2092 104.481 77.0384 104.429C75.8592 104.376 74.7167 104.002 73.7343 103.347C72.7519 102.692 71.967 101.78 71.4643 100.71C70.9617 99.6405 70.7604 98.4536 70.8823 97.2777C71.0041 96.1019 71.4445 94.9817 72.1557 94.0382C72.867 93.0947 73.8221 92.3639 74.918 91.9245C76.0138 91.4852 77.2087 91.3541 78.3735 91.5455C79.5305 91.7355 80.6141 92.2365 81.5089 92.9948L81.6445 92.8904C80.3222 92.2755 79.2458 91.2305 78.591 89.9249C77.929 88.6048 77.7377 87.0976 78.049 85.6535C78.3603 84.2095 79.1555 82.9156 80.3024 81.9867C81.4493 81.0578 82.879 80.5497 84.3541 80.547Z" fill="white"/>
<path d="M66.2695 78.6908C67.046 78.3335 67.8905 78.1485 68.745 78.1485C69.5996 78.1485 70.444 78.3335 71.2205 78.6908C72.5368 79.3749 74.0669 79.5204 75.4883 79.0967C76.9096 78.6729 78.1112 77.713 78.8397 76.4193C79.5216 75.2316 80.4851 76.1372 79.8032 77.9039C79.1213 79.6707 75.9343 83.694 72.1396 81.6155C68.3448 79.537 68.4189 78.5572 66.2695 78.6908Z" fill="#453682"/>
<path d="M53.7588 79.7448C52.9621 79.4379 52.1086 79.3068 51.2567 79.3606C50.4048 79.4144 49.5745 79.6518 48.8226 80.0566C47.5525 80.8224 46.0347 81.0632 44.5905 80.7279C43.1463 80.3926 41.8891 79.5076 41.0849 78.2602C40.3141 77.117 39.4098 78.082 40.2103 79.7448C41.0108 81.4076 44.4349 85.2974 48.0815 82.9665C51.728 80.6356 51.6094 79.7448 53.7588 79.7448Z" fill="#453682"/>
</svg>
