<svg width="286" height="301" viewBox="0 0 286 301" fill="none" xmlns="http://www.w3.org/2000/svg">
<path d="M251.823 204.066C259.978 207.864 266.813 214.012 271.45 221.721C276.087 229.43 278.315 238.349 277.847 247.334C276.371 264.976 254.697 272.201 251.464 283.616C248.231 295.032 236.895 290.242 237.494 282.818C238.092 275.394 245.477 268.169 254.737 260.186C263.997 252.203 277.768 235.239 252.541 210.851C249.827 205.663 251.823 204.066 251.823 204.066Z" fill="#C6B8FF"/>
<mask id="mask0_764_6230" style="mask-type:luminance" maskUnits="userSpaceOnUse" x="237" y="204" width="41" height="87">
<path d="M251.823 204.066C259.978 207.864 266.813 214.012 271.45 221.721C276.087 229.43 278.315 238.349 277.847 247.334C276.371 264.976 254.697 272.201 251.464 283.616C248.231 295.032 236.895 290.242 237.494 282.818C238.092 275.394 245.477 268.169 254.737 260.186C263.997 252.203 277.768 235.239 252.541 210.851C249.827 205.663 251.823 204.066 251.823 204.066Z" fill="white"/>
</mask>
<g mask="url(#mask0_764_6230)">
<path d="M185.684 276.312C188.595 267.372 190.653 258.178 191.831 248.85C193.068 236.317 190.035 171.176 225.28 182.153C233.263 186.583 244.758 195.045 252.102 198.119C259.447 201.192 269.545 212.967 256.094 231.048C242.643 249.13 214.982 266.533 206.799 291.878C201.81 290.002 185.684 276.312 185.684 276.312Z" fill="#7E65D5"/>
</g>
<path d="M177.023 209.534C183.079 208.684 188.776 206.153 193.468 202.23C199.774 196.203 234.58 179.239 254.777 197.081C274.974 214.923 251.504 247.094 238.092 248.97C224.681 250.846 124.375 261.902 123.337 236.596C122.299 211.29 172.353 206.181 177.023 209.534Z" fill="#B6A6F6"/>
<mask id="mask1_764_6230" style="mask-type:luminance" maskUnits="userSpaceOnUse" x="123" y="189" width="140" height="64">
<path d="M177.023 209.534C183.079 208.684 188.776 206.153 193.468 202.23C199.774 196.203 234.58 179.239 254.777 197.081C274.974 214.923 251.504 247.094 238.092 248.97C224.681 250.846 124.375 261.902 123.337 236.596C122.299 211.29 172.353 206.181 177.023 209.534Z" fill="white"/>
</mask>
<g mask="url(#mask1_764_6230)">
<path d="M162.054 169.061C159.77 167.82 157.305 166.945 154.75 166.466C153.431 166.215 152.098 166.042 150.759 165.947H147.565H147.166C146.033 165.954 144.9 166.021 143.773 166.147L142.017 166.426C135.87 167.664 112.56 171.136 112.081 193.688C112.104 194.06 112.104 194.434 112.081 194.806C112.081 195.404 112.081 196.163 112.081 196.961V197.28C112.081 198.079 112.081 198.917 112.081 199.755C112.081 199.755 112.081 200.074 112.081 200.234C112.081 201.032 112.081 201.871 112.36 202.629C112.36 202.629 112.36 202.629 112.36 202.948C112.46 203.653 112.62 204.347 112.839 205.024V205.623C112.88 206.154 112.88 206.688 112.839 207.219C112.839 207.539 112.839 207.858 112.839 208.217C112.839 208.576 112.839 209.335 112.839 209.973C112.82 210.332 112.82 210.692 112.839 211.051C112.759 212.247 112.759 213.447 112.839 214.643C112.839 215.162 112.839 215.641 112.839 216.16C113.087 217.829 113.53 219.463 114.157 221.03C114.911 222.878 115.963 224.59 117.27 226.099C127.448 238.592 146.927 238.073 164.09 228.214L166.764 226.618L167.762 225.979L169.199 225.021L170.397 224.183L171.395 223.425L172.592 222.467L173.39 221.788L174.508 220.79L175.625 220.032L176.663 218.914L177.142 218.355L178.1 217.198C178.21 217.009 178.345 216.834 178.499 216.679L179.338 215.402L179.617 214.963C179.895 214.532 180.136 214.078 180.335 213.606C180.35 213.473 180.35 213.339 180.335 213.206C180.575 212.727 180.775 212.248 180.974 211.77V211.37C181.17 210.877 181.33 210.37 181.453 209.854V209.494L181.812 207.858C181.793 207.752 181.793 207.644 181.812 207.539C181.812 206.98 181.812 206.381 182.012 205.782V205.663C182.012 205.024 182.012 204.425 182.012 203.747C182.012 203.068 182.012 202.39 182.012 201.671C181.972 200.922 181.892 200.176 181.772 199.436C181.772 198.917 181.772 198.438 181.772 197.919C180.89 191.928 178.656 186.217 175.24 181.217C171.824 176.217 167.315 172.06 162.054 169.061Z" fill="#7E65D5"/>
<mask id="mask2_764_6230" style="mask-type:luminance" maskUnits="userSpaceOnUse" x="112" y="165" width="71" height="71">
<path d="M162.054 169.061C159.77 167.82 157.305 166.945 154.75 166.466C153.431 166.215 152.098 166.042 150.759 165.947H147.565H147.166C146.033 165.954 144.9 166.021 143.773 166.147L142.017 166.426C135.87 167.664 112.56 171.136 112.081 193.688C112.104 194.06 112.104 194.434 112.081 194.806C112.081 195.404 112.081 196.163 112.081 196.961V197.28C112.081 198.079 112.081 198.917 112.081 199.755C112.081 199.755 112.081 200.074 112.081 200.234C112.081 201.032 112.081 201.871 112.36 202.629C112.36 202.629 112.36 202.629 112.36 202.948C112.46 203.653 112.62 204.347 112.839 205.024V205.623C112.88 206.154 112.88 206.688 112.839 207.219C112.839 207.539 112.839 207.858 112.839 208.217C112.839 208.576 112.839 209.335 112.839 209.973C112.82 210.332 112.82 210.692 112.839 211.051C112.759 212.247 112.759 213.447 112.839 214.643C112.839 215.162 112.839 215.641 112.839 216.16C113.087 217.829 113.53 219.463 114.157 221.03C114.911 222.878 115.963 224.59 117.27 226.099C127.448 238.592 146.927 238.073 164.09 228.214L166.764 226.618L167.762 225.979L169.199 225.021L170.397 224.183L171.395 223.425L172.592 222.467L173.39 221.788L174.508 220.79L175.625 220.032L176.663 218.914L177.142 218.355L178.1 217.198C178.21 217.009 178.345 216.834 178.499 216.679L179.338 215.402L179.617 214.963C179.895 214.532 180.136 214.078 180.335 213.606C180.35 213.473 180.35 213.339 180.335 213.206C180.575 212.727 180.775 212.248 180.974 211.77V211.37C181.17 210.877 181.33 210.37 181.453 209.854V209.494L181.812 207.858C181.793 207.752 181.793 207.644 181.812 207.539C181.812 206.98 181.812 206.381 182.012 205.782V205.663C182.012 205.024 182.012 204.425 182.012 203.747C182.012 203.068 182.012 202.39 182.012 201.671C181.972 200.922 181.892 200.176 181.772 199.436C181.772 198.917 181.772 198.438 181.772 197.919C180.89 191.928 178.656 186.217 175.24 181.217C171.824 176.217 167.315 172.06 162.054 169.061Z" fill="white"/>
</mask>
<g mask="url(#mask2_764_6230)">
<path d="M174.668 226.299C181.7 226.299 187.401 220.598 187.401 213.566C187.401 206.534 181.7 200.833 174.668 200.833C167.636 200.833 161.935 206.534 161.935 213.566C161.935 220.598 167.636 226.299 174.668 226.299Z" fill="#7E65D5"/>
<path d="M120.783 236.158C127.815 236.158 133.515 230.457 133.515 223.425C133.515 216.393 127.815 210.692 120.783 210.692C113.75 210.692 108.05 216.393 108.05 223.425C108.05 230.457 113.75 236.158 120.783 236.158Z" fill="#7E65D5"/>
</g>
<path d="M231.826 235.758C216.468 241.953 199.92 244.636 183.392 243.613C166.863 242.59 150.773 237.886 136.296 229.844C121.82 221.803 109.324 210.627 99.7221 197.135C90.1202 183.643 83.6551 168.176 80.7996 151.864C77.9441 135.552 78.7704 118.808 83.2181 102.857C87.6659 86.9054 95.6225 72.1497 106.506 59.6687C117.39 47.1877 130.926 37.2971 146.123 30.72C161.321 24.1429 177.797 21.0457 194.346 21.6549C195.744 21.7645 197.133 21.3555 198.249 20.506C199.365 19.6565 200.129 18.426 200.396 17.0491C200.662 15.6722 200.412 14.2455 199.694 13.041C198.976 11.8365 197.839 10.9386 196.501 10.5186C170.311 2.00344 142.236 1.13703 115.571 8.02112C88.9059 14.9052 64.7584 29.254 45.9638 49.3829C27.1691 69.5117 14.5073 94.5849 9.46514 121.659C4.42296 148.732 7.20969 176.683 17.4981 202.228C27.7865 227.773 45.1496 249.853 67.5486 265.874C89.9476 281.896 116.453 291.195 143.952 292.679C171.451 294.162 198.803 287.77 222.796 274.251C246.789 260.733 266.427 240.649 279.404 216.36C279.983 215.154 280.12 213.783 279.791 212.486C279.463 211.189 278.689 210.049 277.605 209.265C276.521 208.481 275.197 208.102 273.862 208.195C272.528 208.288 271.268 208.847 270.304 209.774C259.462 221.062 246.347 229.919 231.826 235.758Z" fill="#6550B0"/>
<mask id="mask3_764_6230" style="mask-type:luminance" maskUnits="userSpaceOnUse" x="7" y="3" width="273" height="290">
<path d="M231.826 235.758C216.468 241.953 199.92 244.636 183.392 243.613C166.863 242.59 150.773 237.886 136.296 229.844C121.82 221.803 109.324 210.627 99.7221 197.135C90.1202 183.643 83.6551 168.176 80.7996 151.864C77.9441 135.552 78.7704 118.808 83.2181 102.857C87.6659 86.9054 95.6225 72.1497 106.506 59.6687C117.39 47.1877 130.926 37.2971 146.123 30.72C161.321 24.1429 177.797 21.0457 194.346 21.6549C195.744 21.7645 197.133 21.3555 198.249 20.506C199.365 19.6565 200.129 18.426 200.396 17.0491C200.662 15.6722 200.412 14.2455 199.694 13.041C198.976 11.8365 197.839 10.9386 196.501 10.5186C170.311 2.00344 142.236 1.13703 115.571 8.02112C88.9059 14.9052 64.7584 29.254 45.9638 49.3829C27.1691 69.5117 14.5073 94.5849 9.46514 121.659C4.42296 148.732 7.20969 176.683 17.4981 202.228C27.7865 227.773 45.1496 249.853 67.5486 265.874C89.9476 281.896 116.453 291.195 143.952 292.679C171.451 294.162 198.803 287.77 222.796 274.251C246.789 260.733 266.427 240.649 279.404 216.36C279.983 215.154 280.12 213.783 279.791 212.486C279.463 211.189 278.689 210.049 277.605 209.265C276.521 208.481 275.197 208.102 273.862 208.195C272.528 208.288 271.268 208.847 270.304 209.774C259.462 221.062 246.347 229.919 231.826 235.758Z" fill="white"/>
</mask>
<g mask="url(#mask3_764_6230)">
<path d="M236.216 297.666C308.235 297.666 366.618 239.283 366.618 167.264C366.618 95.2452 308.235 36.8623 236.216 36.8623C164.197 36.8623 105.814 95.2452 105.814 167.264C105.814 239.283 164.197 297.666 236.216 297.666Z" fill="#6550B0"/>
<path d="M236.216 287.887C302.834 287.887 356.839 233.882 356.839 167.264C356.839 100.646 302.834 46.6416 236.216 46.6416C169.598 46.6416 115.594 100.646 115.594 167.264C115.594 233.882 169.598 287.887 236.216 287.887Z" fill="#6550B0"/>
<path d="M192.989 312.953C265.008 312.953 323.391 254.571 323.391 182.552C323.391 110.533 265.008 52.1499 192.989 52.1499C120.97 52.1499 62.5869 110.533 62.5869 182.552C62.5869 254.571 120.97 312.953 192.989 312.953Z" fill="#6550B0"/>
<path d="M192.989 323.69C270.937 323.69 334.127 260.5 334.127 182.551C334.127 104.603 270.937 41.4126 192.989 41.4126C115.04 41.4126 51.8496 104.603 51.8496 182.551C51.8496 260.5 115.04 323.69 192.989 323.69Z" fill="#6550B0"/>
</g>
</g>
<path d="M150.998 242.464C150.998 242.464 148.324 231.647 150.998 227.496C153.672 223.345 163.811 229.572 165.328 236.796C166.844 244.021 156.666 245.458 155.03 244.3C153.77 243.518 152.415 242.901 150.998 242.464Z" fill="white"/>
<mask id="mask4_764_6230" style="mask-type:luminance" maskUnits="userSpaceOnUse" x="149" y="226" width="17" height="19">
<path d="M150.998 242.464C150.998 242.464 148.324 231.647 150.998 227.496C153.672 223.345 163.811 229.572 165.328 236.796C166.844 244.021 156.666 245.458 155.03 244.3C153.77 243.518 152.415 242.901 150.998 242.464Z" fill="white"/>
</mask>
<g mask="url(#mask4_764_6230)">
<path d="M162.054 169.061C159.77 167.82 157.305 166.945 154.75 166.466C153.431 166.215 152.098 166.042 150.759 165.947H147.565H147.166C146.033 165.954 144.9 166.021 143.773 166.147L142.017 166.426C135.87 167.664 112.56 171.136 112.081 193.688C112.104 194.06 112.104 194.434 112.081 194.806C112.081 195.404 112.081 196.163 112.081 196.961V197.28C112.081 198.079 112.081 198.917 112.081 199.755C112.081 199.755 112.081 200.074 112.081 200.234C112.081 201.032 112.081 201.871 112.36 202.629C112.36 202.629 112.36 202.629 112.36 202.948C112.46 203.653 112.62 204.347 112.839 205.024V205.623C112.88 206.154 112.88 206.688 112.839 207.219C112.839 207.539 112.839 207.858 112.839 208.217C112.839 208.576 112.839 209.335 112.839 209.973C112.82 210.332 112.82 210.692 112.839 211.051C112.759 212.247 112.759 213.447 112.839 214.643C112.839 215.162 112.839 215.641 112.839 216.16C113.087 217.829 113.53 219.463 114.157 221.03C114.911 222.878 115.963 224.59 117.27 226.099C127.448 238.592 146.927 238.073 164.09 228.214L166.764 226.618L167.762 225.979L169.199 225.021L170.397 224.183L171.395 223.425L172.592 222.467L173.39 221.788L174.508 220.79L175.625 220.032L176.663 218.914L177.142 218.355L178.1 217.198C178.21 217.009 178.345 216.834 178.499 216.679L179.338 215.402L179.617 214.963C179.895 214.532 180.136 214.078 180.335 213.606C180.35 213.473 180.35 213.339 180.335 213.206C180.575 212.727 180.775 212.248 180.974 211.77V211.37C181.17 210.877 181.33 210.37 181.453 209.854V209.494L181.812 207.858C181.793 207.752 181.793 207.644 181.812 207.539C181.812 206.98 181.812 206.381 182.012 205.782V205.663C182.012 205.024 182.012 204.425 182.012 203.747C182.012 203.068 182.012 202.39 182.012 201.671C181.972 200.922 181.892 200.176 181.772 199.436C181.772 198.917 181.772 198.438 181.772 197.919C180.89 191.928 178.656 186.217 175.24 181.217C171.824 176.217 167.315 172.06 162.054 169.061Z" fill="#ECE7FF"/>
<mask id="mask5_764_6230" style="mask-type:luminance" maskUnits="userSpaceOnUse" x="112" y="165" width="71" height="71">
<path d="M162.054 169.061C159.77 167.82 157.305 166.945 154.75 166.466C153.431 166.215 152.098 166.042 150.759 165.947H147.565H147.166C146.033 165.954 144.9 166.021 143.773 166.147L142.017 166.426C135.87 167.664 112.56 171.136 112.081 193.688C112.104 194.06 112.104 194.434 112.081 194.806C112.081 195.404 112.081 196.163 112.081 196.961V197.28C112.081 198.079 112.081 198.917 112.081 199.755C112.081 199.755 112.081 200.074 112.081 200.234C112.081 201.032 112.081 201.871 112.36 202.629C112.36 202.629 112.36 202.629 112.36 202.948C112.46 203.653 112.62 204.347 112.839 205.024V205.623C112.88 206.154 112.88 206.688 112.839 207.219C112.839 207.539 112.839 207.858 112.839 208.217C112.839 208.576 112.839 209.335 112.839 209.973C112.82 210.332 112.82 210.692 112.839 211.051C112.759 212.247 112.759 213.447 112.839 214.643C112.839 215.162 112.839 215.641 112.839 216.16C113.087 217.829 113.53 219.463 114.157 221.03C114.911 222.878 115.963 224.59 117.27 226.099C127.448 238.592 146.927 238.073 164.09 228.214L166.764 226.618L167.762 225.979L169.199 225.021L170.397 224.183L171.395 223.425L172.592 222.467L173.39 221.788L174.508 220.79L175.625 220.032L176.663 218.914L177.142 218.355L178.1 217.198C178.21 217.009 178.345 216.834 178.499 216.679L179.338 215.402L179.617 214.963C179.895 214.532 180.136 214.078 180.335 213.606C180.35 213.473 180.35 213.339 180.335 213.206C180.575 212.727 180.775 212.248 180.974 211.77V211.37C181.17 210.877 181.33 210.37 181.453 209.854V209.494L181.812 207.858C181.793 207.752 181.793 207.644 181.812 207.539C181.812 206.98 181.812 206.381 182.012 205.782V205.663C182.012 205.024 182.012 204.425 182.012 203.747C182.012 203.068 182.012 202.39 182.012 201.671C181.972 200.922 181.892 200.176 181.772 199.436C181.772 198.917 181.772 198.438 181.772 197.919C180.89 191.928 178.656 186.217 175.24 181.217C171.824 176.217 167.315 172.06 162.054 169.061Z" fill="white"/>
</mask>
<g mask="url(#mask5_764_6230)">
<path d="M174.668 226.299C181.7 226.299 187.401 220.598 187.401 213.566C187.401 206.534 181.7 200.833 174.668 200.833C167.636 200.833 161.935 206.534 161.935 213.566C161.935 220.598 167.636 226.299 174.668 226.299Z" fill="#ECE7FF"/>
</g>
</g>
<path d="M148.164 241.825C148.164 241.825 156.427 235.758 153.952 228.534C156.427 235.798 168.601 234.88 168.601 234.88C165.906 229.212 163.702 223.323 162.015 217.278C158.554 218.301 155.346 220.037 152.596 222.374C149.846 224.711 147.616 227.598 146.049 230.849" fill="#7E65D5"/>
<mask id="mask6_764_6230" style="mask-type:luminance" maskUnits="userSpaceOnUse" x="146" y="217" width="23" height="25">
<path d="M148.164 241.825C148.164 241.825 156.427 235.758 153.952 228.534C156.427 235.798 168.601 234.88 168.601 234.88C165.906 229.212 163.702 223.323 162.015 217.278C158.554 218.301 155.346 220.037 152.596 222.374C149.846 224.711 147.616 227.598 146.049 230.849" fill="white"/>
</mask>
<g mask="url(#mask6_764_6230)">
<path d="M162.054 169.061C159.77 167.82 157.305 166.945 154.75 166.466C153.431 166.215 152.098 166.042 150.759 165.947H147.565H147.166C146.033 165.954 144.9 166.021 143.773 166.147L142.017 166.426C135.87 167.664 112.56 171.136 112.081 193.688C112.104 194.06 112.104 194.434 112.081 194.806C112.081 195.404 112.081 196.163 112.081 196.961V197.28C112.081 198.079 112.081 198.917 112.081 199.755C112.081 199.755 112.081 200.074 112.081 200.234C112.081 201.032 112.081 201.871 112.36 202.629C112.36 202.629 112.36 202.629 112.36 202.948C112.46 203.653 112.62 204.347 112.839 205.024V205.623C112.88 206.154 112.88 206.688 112.839 207.219C112.839 207.539 112.839 207.858 112.839 208.217C112.839 208.576 112.839 209.335 112.839 209.973C112.82 210.332 112.82 210.692 112.839 211.051C112.759 212.247 112.759 213.447 112.839 214.643C112.839 215.162 112.839 215.641 112.839 216.16C113.087 217.829 113.53 219.463 114.157 221.03C114.911 222.878 115.963 224.59 117.27 226.099C127.448 238.592 146.927 238.073 164.09 228.214L166.764 226.618L167.762 225.979L169.199 225.021L170.397 224.183L171.395 223.425L172.592 222.467L173.39 221.788L174.508 220.79L175.625 220.032L176.663 218.914L177.142 218.355L178.1 217.198C178.21 217.009 178.345 216.834 178.499 216.679L179.338 215.402L179.617 214.963C179.895 214.532 180.136 214.078 180.335 213.606C180.35 213.473 180.35 213.339 180.335 213.206C180.575 212.727 180.775 212.248 180.974 211.77V211.37C181.17 210.877 181.33 210.37 181.453 209.854V209.494L181.812 207.858C181.793 207.752 181.793 207.644 181.812 207.539C181.812 206.98 181.812 206.381 182.012 205.782V205.663C182.012 205.024 182.012 204.425 182.012 203.747C182.012 203.068 182.012 202.39 182.012 201.671C181.972 200.922 181.892 200.176 181.772 199.436C181.772 198.917 181.772 198.438 181.772 197.919C180.89 191.928 178.656 186.217 175.24 181.217C171.824 176.217 167.315 172.06 162.054 169.061Z" fill="#6550B0"/>
<mask id="mask7_764_6230" style="mask-type:luminance" maskUnits="userSpaceOnUse" x="112" y="165" width="71" height="71">
<path d="M162.054 169.061C159.77 167.82 157.305 166.945 154.75 166.466C153.431 166.215 152.098 166.042 150.759 165.947H147.565H147.166C146.033 165.954 144.9 166.021 143.773 166.147L142.017 166.426C135.87 167.664 112.56 171.136 112.081 193.688C112.104 194.06 112.104 194.434 112.081 194.806C112.081 195.404 112.081 196.163 112.081 196.961V197.28C112.081 198.079 112.081 198.917 112.081 199.755C112.081 199.755 112.081 200.074 112.081 200.234C112.081 201.032 112.081 201.871 112.36 202.629C112.36 202.629 112.36 202.629 112.36 202.948C112.46 203.653 112.62 204.347 112.839 205.024V205.623C112.88 206.154 112.88 206.688 112.839 207.219C112.839 207.539 112.839 207.858 112.839 208.217C112.839 208.576 112.839 209.335 112.839 209.973C112.82 210.332 112.82 210.692 112.839 211.051C112.759 212.247 112.759 213.447 112.839 214.643C112.839 215.162 112.839 215.641 112.839 216.16C113.087 217.829 113.53 219.463 114.157 221.03C114.911 222.878 115.963 224.59 117.27 226.099C127.448 238.592 146.927 238.073 164.09 228.214L166.764 226.618L167.762 225.979L169.199 225.021L170.397 224.183L171.395 223.425L172.592 222.467L173.39 221.788L174.508 220.79L175.625 220.032L176.663 218.914L177.142 218.355L178.1 217.198C178.21 217.009 178.345 216.834 178.499 216.679L179.338 215.402L179.617 214.963C179.895 214.532 180.136 214.078 180.335 213.606C180.35 213.473 180.35 213.339 180.335 213.206C180.575 212.727 180.775 212.248 180.974 211.77V211.37C181.17 210.877 181.33 210.37 181.453 209.854V209.494L181.812 207.858C181.793 207.752 181.793 207.644 181.812 207.539C181.812 206.98 181.812 206.381 182.012 205.782V205.663C182.012 205.024 182.012 204.425 182.012 203.747C182.012 203.068 182.012 202.39 182.012 201.671C181.972 200.922 181.892 200.176 181.772 199.436C181.772 198.917 181.772 198.438 181.772 197.919C180.89 191.928 178.656 186.217 175.24 181.217C171.824 176.217 167.315 172.06 162.054 169.061Z" fill="white"/>
</mask>
<g mask="url(#mask7_764_6230)">
<path d="M174.668 226.299C181.7 226.299 187.401 220.598 187.401 213.566C187.401 206.534 181.7 200.833 174.668 200.833C167.636 200.833 161.935 206.534 161.935 213.566C161.935 220.598 167.636 226.299 174.668 226.299Z" fill="#6550B0"/>
</g>
</g>
<path d="M191.591 149.422H191.192C191.232 149.292 191.232 149.153 191.192 149.023C191.172 148.762 191.1 148.508 190.98 148.276C190.86 148.043 190.695 147.837 190.494 147.67C190.293 147.502 190.061 147.377 189.81 147.301C189.56 147.225 189.297 147.2 189.037 147.227C188.776 147.247 188.522 147.319 188.289 147.439C188.057 147.559 187.851 147.724 187.683 147.925C187.516 148.126 187.39 148.359 187.314 148.609C187.238 148.859 187.213 149.122 187.241 149.383C187.218 149.515 187.218 149.65 187.241 149.782H186.802C186.275 149.842 185.794 150.105 185.458 150.515C185.123 150.925 184.96 151.449 185.005 151.977C185.03 152.24 185.107 152.495 185.231 152.727C185.355 152.96 185.524 153.166 185.728 153.333C185.933 153.5 186.168 153.625 186.421 153.7C186.673 153.776 186.938 153.801 187.201 153.773H187.6C187.56 153.903 187.56 154.042 187.6 154.172C187.62 154.435 187.692 154.69 187.811 154.925C187.931 155.16 188.095 155.368 188.296 155.539C188.496 155.709 188.728 155.839 188.979 155.919C189.229 156 189.493 156.03 189.755 156.008C190.018 155.983 190.273 155.907 190.506 155.783C190.738 155.658 190.944 155.489 191.111 155.285C191.278 155.081 191.403 154.846 191.479 154.593C191.554 154.341 191.579 154.075 191.551 153.813C191.57 153.681 191.57 153.546 191.551 153.414H191.991C192.513 153.363 192.995 153.109 193.331 152.705C193.668 152.302 193.831 151.782 193.787 151.259C193.736 150.725 193.477 150.233 193.066 149.89C192.655 149.546 192.125 149.378 191.591 149.422Z" fill="#F6DC87"/>
<path d="M176.464 166.027C181.293 163.832 185.963 161.277 190.953 159.401C195.891 157.411 200.959 155.758 206.12 154.452C208.738 153.764 211.408 153.297 214.103 153.055C215.521 152.909 216.954 153.017 218.334 153.374C218.787 153.47 219.213 153.667 219.579 153.95C219.946 154.234 220.243 154.596 220.45 155.011C220.6 155.452 220.65 155.921 220.594 156.384C220.539 156.847 220.381 157.292 220.131 157.685C218.529 159.995 216.496 161.974 214.143 163.513C211.948 165.069 209.673 166.506 207.358 167.863C207.092 168.008 206.781 168.043 206.49 167.961C206.199 167.879 205.952 167.686 205.801 167.424C205.653 167.164 205.612 166.856 205.686 166.565C205.761 166.275 205.945 166.025 206.2 165.868C208.507 164.661 210.746 163.328 212.906 161.876C215.037 160.556 216.916 158.867 218.454 156.887C219.931 155.051 216.578 154.691 214.143 154.811C211.549 154.968 208.972 155.342 206.44 155.929C201.284 157.073 196.215 158.58 191.272 160.439C186.283 162.155 181.533 164.431 176.663 166.586C176.61 166.622 176.548 166.641 176.484 166.641C176.42 166.641 176.357 166.622 176.304 166.586C176.267 166.576 176.233 166.558 176.203 166.534C176.173 166.51 176.148 166.481 176.13 166.448C176.111 166.414 176.1 166.378 176.095 166.34C176.091 166.302 176.094 166.263 176.104 166.227C176.115 166.19 176.133 166.156 176.156 166.126C176.18 166.096 176.209 166.071 176.243 166.053C176.276 166.034 176.313 166.022 176.351 166.018C176.389 166.014 176.427 166.017 176.464 166.027Z" fill="#F6DC87"/>
<path d="M188.638 163.472C191.352 162.435 193.986 161.237 196.62 160.319C199.255 159.401 202.169 158.563 205.003 157.924C206.423 157.578 207.863 157.311 209.313 157.126C210.071 157.066 210.831 157.066 211.589 157.126C211.825 157.135 212.057 157.193 212.27 157.296C212.483 157.399 212.672 157.545 212.826 157.725C212.945 157.961 212.982 158.231 212.931 158.491C212.881 158.751 212.745 158.987 212.547 159.162C210.339 161.127 207.816 162.706 205.082 163.832C205.03 163.858 204.973 163.873 204.915 163.878C204.856 163.882 204.797 163.874 204.742 163.856C204.686 163.837 204.635 163.808 204.59 163.77C204.546 163.731 204.51 163.684 204.484 163.632C204.458 163.58 204.442 163.523 204.438 163.464C204.434 163.406 204.441 163.347 204.46 163.291C204.478 163.236 204.507 163.184 204.546 163.14C204.584 163.096 204.631 163.06 204.683 163.033C207.308 161.96 209.746 160.478 211.908 158.643C212.347 158.084 212.147 158.044 211.429 157.884C210.738 157.824 210.044 157.824 209.353 157.884C207.931 158.046 206.518 158.286 205.122 158.603C202.328 159.241 199.534 160.04 196.78 160.958C194.026 161.876 191.392 162.993 188.797 163.991C188.797 163.991 188.478 163.991 188.438 163.991C188.369 163.965 188.314 163.912 188.284 163.845C188.254 163.777 188.252 163.701 188.278 163.632C188.305 163.563 188.357 163.508 188.425 163.478C188.492 163.448 188.569 163.446 188.638 163.472Z" fill="#C6B8FF"/>
<path d="M215.54 169.18L215.301 169.38V169.14C215.196 168.996 215.064 168.874 214.912 168.781C214.76 168.688 214.591 168.626 214.415 168.598C214.239 168.57 214.059 168.578 213.886 168.619C213.712 168.661 213.549 168.736 213.405 168.841C213.261 168.946 213.139 169.078 213.046 169.23C212.953 169.382 212.89 169.551 212.863 169.727C212.835 169.903 212.842 170.083 212.884 170.256C212.925 170.43 213.001 170.593 213.106 170.737V170.937H212.866C212.575 171.148 212.38 171.467 212.324 171.823C212.268 172.178 212.355 172.542 212.567 172.833C212.778 173.124 213.097 173.319 213.453 173.375C213.808 173.431 214.172 173.344 214.463 173.132H214.662C214.651 173.211 214.651 173.292 214.662 173.371C214.767 173.516 214.899 173.638 215.051 173.731C215.203 173.824 215.372 173.886 215.548 173.914C215.724 173.942 215.904 173.934 216.077 173.893C216.251 173.851 216.414 173.776 216.558 173.671C216.702 173.566 216.824 173.434 216.917 173.282C217.011 173.13 217.073 172.961 217.101 172.785C217.128 172.609 217.121 172.429 217.08 172.256C217.038 172.082 216.962 171.919 216.858 171.775H217.097C217.244 171.673 217.369 171.543 217.465 171.392C217.562 171.241 217.628 171.073 217.659 170.897C217.691 170.721 217.687 170.541 217.649 170.366C217.611 170.191 217.539 170.026 217.436 169.879C217.334 169.732 217.204 169.607 217.053 169.51C216.903 169.414 216.735 169.348 216.559 169.317C216.383 169.285 216.202 169.289 216.027 169.327C215.853 169.365 215.687 169.437 215.54 169.54V169.18Z" fill="#C6B8FF"/>
<path d="M193.747 180.955C193.665 180.719 193.494 180.524 193.27 180.412C193.046 180.3 192.787 180.28 192.549 180.357C192.31 180.447 192.114 180.626 192.003 180.856C191.891 181.086 191.873 181.35 191.95 181.594C191.832 181.638 191.724 181.706 191.632 181.792C191.54 181.878 191.466 181.982 191.414 182.097C191.362 182.212 191.333 182.336 191.33 182.462C191.326 182.588 191.347 182.714 191.392 182.831C191.428 182.952 191.488 183.063 191.568 183.159C191.649 183.255 191.749 183.334 191.861 183.39C191.973 183.446 192.096 183.479 192.221 183.486C192.346 183.492 192.471 183.474 192.589 183.43H192.789C192.825 183.55 192.885 183.662 192.965 183.758C193.046 183.854 193.146 183.933 193.258 183.989C193.37 184.045 193.493 184.077 193.618 184.084C193.743 184.091 193.868 184.072 193.986 184.029C194.106 183.993 194.218 183.933 194.314 183.852C194.41 183.771 194.489 183.672 194.545 183.56C194.601 183.448 194.633 183.325 194.64 183.2C194.647 183.074 194.628 182.949 194.585 182.831H194.784C194.999 182.73 195.168 182.552 195.26 182.333C195.351 182.114 195.357 181.868 195.278 181.644C195.198 181.421 195.038 181.234 194.829 181.122C194.62 181.009 194.376 180.978 194.146 181.035L193.747 180.955Z" fill="#F6DC87"/>
<path d="M195.583 156.607L195.064 155.689C194.862 155.336 194.733 154.945 194.685 154.54C194.637 154.136 194.671 153.726 194.785 153.334C194.884 152.935 195.068 152.562 195.322 152.238C195.577 151.915 195.897 151.649 196.262 151.458L200.253 149.223L200.772 150.141C200.982 150.498 201.118 150.894 201.172 151.305C201.226 151.716 201.196 152.133 201.084 152.532C200.972 152.931 200.781 153.303 200.521 153.626C200.262 153.949 199.94 154.217 199.574 154.412L195.583 156.607ZM199.574 150.58L196.541 152.297C196.063 152.585 195.708 153.04 195.543 153.574C195.39 154.124 195.462 154.713 195.743 155.21L198.776 153.494C199.027 153.363 199.249 153.182 199.427 152.963C199.606 152.743 199.737 152.489 199.814 152.217C200.01 151.703 200.01 151.134 199.814 150.62L199.574 150.58Z" fill="white"/>
<path d="M146.767 161.557L148.523 161.277C144.811 149.902 135.072 131.74 130.082 132.219C124.095 132.818 124.415 139.164 121.341 145.91C113.358 164.51 116.871 189.816 116.871 189.816V188.699C117.31 166.267 140.62 162.794 146.767 161.557Z" fill="#C6B8FF"/>
<mask id="mask8_764_6230" style="mask-type:luminance" maskUnits="userSpaceOnUse" x="116" y="132" width="33" height="58">
<path d="M146.767 161.557L148.523 161.277C144.811 149.902 135.072 131.74 130.082 132.219C124.095 132.818 124.415 139.164 121.341 145.91C113.358 164.51 116.871 189.816 116.871 189.816V188.699C117.31 166.267 140.62 162.794 146.767 161.557Z" fill="white"/>
</mask>
<g mask="url(#mask8_764_6230)">
<path d="M168.082 161.916C165.809 160.689 163.358 159.827 160.817 159.361C159.504 159.075 158.168 158.901 156.826 158.842C155.828 158.842 154.75 158.842 153.632 158.842H153.273C152.116 158.842 150.958 158.842 149.84 159.082L148.084 159.361C141.937 160.599 118.667 164.071 118.188 186.583C118.188 186.902 118.188 187.302 118.188 187.701C118.188 188.1 118.188 189.098 118.188 189.896V190.215C118.188 191.014 118.188 191.852 118.188 192.65C118.208 192.809 118.208 192.97 118.188 193.129C118.188 193.967 118.388 194.806 118.507 195.524C118.507 195.524 118.507 195.764 118.507 195.883C118.625 196.571 118.785 197.251 118.986 197.919C119.009 198.131 119.009 198.345 118.986 198.558C119.044 199.088 119.044 199.624 118.986 200.154C119.004 200.487 119.004 200.82 118.986 201.152C118.986 201.671 118.986 202.27 118.986 202.908C119.006 203.267 119.006 203.627 118.986 203.986C118.926 205.183 118.926 206.382 118.986 207.578C118.986 208.057 118.986 208.576 118.986 209.095C119.196 210.754 119.626 212.379 120.264 213.925C121.174 215.759 122.344 217.452 123.736 218.954C133.954 231.407 153.393 230.929 170.596 221.07L173.27 219.433L174.268 218.794L175.705 217.836L176.863 216.998L177.901 216.28L179.058 215.322L179.856 214.643C180.248 214.318 180.621 213.972 180.974 213.605L181.613 213.007L182.65 211.929L183.169 211.37L184.087 210.173L184.487 209.694C184.806 209.255 185.045 208.856 185.325 208.417L185.604 207.977C185.884 207.538 186.123 207.059 186.363 206.62C186.412 206.467 186.479 206.32 186.562 206.181L187.161 204.744V204.385L187.64 202.828C187.64 202.828 187.64 202.828 187.64 202.509C187.793 201.972 187.913 201.425 187.999 200.873C187.999 200.873 187.999 200.673 187.999 200.553C187.999 200.434 187.999 199.396 188.239 198.797V198.558C188.239 197.919 188.239 197.28 188.239 196.642C188.278 195.964 188.278 195.284 188.239 194.606C188.239 193.848 188.239 193.129 188.239 192.331C188.239 191.533 188.239 191.333 188.239 190.814C187.297 184.782 184.992 179.044 181.499 174.036C178.006 169.028 173.417 164.883 168.082 161.916Z" fill="#B6A6F6"/>
</g>
<path d="M181.972 135.412C177.062 134.255 164.888 150.899 159.62 161.636C162.158 162.108 164.609 162.97 166.884 164.191C172.149 167.153 176.678 171.264 180.134 176.219C183.589 181.175 185.882 186.846 186.842 192.81C186.842 193.329 186.842 193.848 187.041 194.327C187.041 194.327 194.146 169.659 188.797 150.141C186.602 143.036 187.8 136.809 181.972 135.412Z" fill="#C6B8FF"/>
<mask id="mask9_764_6230" style="mask-type:luminance" maskUnits="userSpaceOnUse" x="159" y="135" width="32" height="60">
<path d="M181.972 135.412C177.062 134.255 164.888 150.899 159.62 161.636C162.158 162.108 164.609 162.97 166.884 164.191C172.149 167.153 176.678 171.264 180.134 176.219C183.589 181.175 185.882 186.846 186.842 192.81C186.842 193.329 186.842 193.848 187.041 194.327C187.041 194.327 194.146 169.659 188.797 150.141C186.602 143.036 187.8 136.809 181.972 135.412Z" fill="white"/>
</mask>
<g mask="url(#mask9_764_6230)">
<path d="M168.082 161.916C165.809 160.689 163.358 159.827 160.817 159.361C159.504 159.075 158.168 158.901 156.826 158.842C155.828 158.842 154.75 158.842 153.632 158.842H153.273C152.116 158.842 150.958 158.842 149.84 159.082L148.084 159.361C141.937 160.599 118.667 164.071 118.188 186.583C118.188 186.902 118.188 187.302 118.188 187.701C118.188 188.1 118.188 189.098 118.188 189.896V190.215C118.188 191.014 118.188 191.852 118.188 192.65C118.208 192.809 118.208 192.97 118.188 193.129C118.188 193.967 118.388 194.806 118.507 195.524C118.507 195.524 118.507 195.764 118.507 195.883C118.625 196.571 118.785 197.251 118.986 197.919C119.009 198.131 119.009 198.345 118.986 198.558C119.044 199.088 119.044 199.624 118.986 200.154C119.004 200.487 119.004 200.82 118.986 201.152C118.986 201.671 118.986 202.27 118.986 202.908C119.006 203.267 119.006 203.627 118.986 203.986C118.926 205.183 118.926 206.382 118.986 207.578C118.986 208.057 118.986 208.576 118.986 209.095C119.196 210.754 119.626 212.379 120.264 213.925C121.174 215.759 122.344 217.452 123.736 218.954C133.954 231.407 153.393 230.929 170.596 221.07L173.27 219.433L174.268 218.794L175.705 217.836L176.863 216.998L177.901 216.28L179.058 215.322L179.856 214.643C180.248 214.318 180.621 213.972 180.974 213.605L181.613 213.007L182.65 211.929L183.169 211.37L184.087 210.173L184.487 209.694C184.806 209.255 185.045 208.856 185.325 208.417L185.604 207.977C185.884 207.538 186.123 207.059 186.363 206.62C186.412 206.467 186.479 206.32 186.562 206.181L187.161 204.744V204.385L187.64 202.828C187.64 202.828 187.64 202.828 187.64 202.509C187.793 201.972 187.913 201.425 187.999 200.873C187.999 200.873 187.999 200.673 187.999 200.553C187.999 200.434 187.999 199.396 188.239 198.797V198.558C188.239 197.919 188.239 197.28 188.239 196.642C188.278 195.964 188.278 195.284 188.239 194.606C188.239 193.848 188.239 193.129 188.239 192.331C188.239 191.533 188.239 191.333 188.239 190.814C187.297 184.782 184.992 179.044 181.499 174.036C178.006 169.028 173.417 164.883 168.082 161.916Z" fill="#B6A6F6"/>
</g>
<path d="M181.772 140.202C186.921 137.129 186.921 146.19 187.68 150.66C188.438 155.131 191.991 165.908 186.842 191.533C186.866 191.732 186.866 191.933 186.842 192.132C186.842 193.169 186.842 193.928 184.447 185.226C182.231 179.062 178.314 173.651 173.151 169.62C174.621 167.971 175.706 166.017 176.327 163.897C176.949 161.778 177.091 159.547 176.743 157.366C175.626 151.658 177.741 142.637 181.772 140.202Z" fill="#7E65D5"/>
<mask id="mask10_764_6230" style="mask-type:luminance" maskUnits="userSpaceOnUse" x="173" y="139" width="17" height="54">
<path d="M181.772 140.202C186.921 137.129 186.921 146.19 187.68 150.66C188.438 155.131 191.991 165.908 186.842 191.533C186.866 191.732 186.866 191.933 186.842 192.132C186.842 193.169 186.842 193.928 184.447 185.226C182.231 179.062 178.314 173.651 173.151 169.62C174.621 167.971 175.706 166.017 176.327 163.897C176.949 161.778 177.091 159.547 176.743 157.366C175.626 151.658 177.741 142.637 181.772 140.202Z" fill="white"/>
</mask>
<g mask="url(#mask10_764_6230)">
<path d="M168.082 161.916C165.809 160.689 163.358 159.827 160.817 159.362C159.504 159.075 158.168 158.902 156.826 158.843C155.828 158.843 154.75 158.843 153.632 158.843H153.273C152.116 158.843 150.958 158.843 149.84 159.082L148.084 159.362C141.937 160.599 118.667 164.072 118.188 186.584C118.188 186.903 118.188 187.302 118.188 187.701C118.188 188.1 118.188 189.098 118.188 189.897V190.216C118.188 191.014 118.188 191.852 118.188 192.651C118.208 192.81 118.208 192.971 118.188 193.13C118.188 193.968 118.388 194.806 118.507 195.525C118.507 195.525 118.507 195.764 118.507 195.884C118.625 196.571 118.785 197.251 118.986 197.919C119.009 198.132 119.009 198.346 118.986 198.558C119.044 199.089 119.044 199.624 118.986 200.155C119.004 200.487 119.004 200.82 118.986 201.153C118.986 201.671 118.986 202.27 118.986 202.909C119.006 203.268 119.006 203.628 118.986 203.986C118.926 205.183 118.926 206.382 118.986 207.579C118.986 208.058 118.986 208.577 118.986 209.096C119.196 210.755 119.626 212.379 120.264 213.925C121.174 215.759 122.344 217.453 123.736 218.955C133.954 231.408 153.393 230.929 170.596 221.07L173.27 219.434L174.268 218.795L175.705 217.837L176.863 216.999L177.901 216.28L179.058 215.322L179.856 214.644C180.248 214.319 180.621 213.972 180.974 213.606L181.613 213.007L182.65 211.93L183.169 211.371L184.087 210.173L184.487 209.694C184.806 209.255 185.045 208.856 185.325 208.417L185.604 207.978C185.884 207.539 186.123 207.06 186.363 206.621C186.412 206.467 186.479 206.32 186.562 206.182L187.161 204.745V204.386L187.64 202.829C187.64 202.829 187.64 202.829 187.64 202.51C187.793 201.972 187.913 201.426 187.999 200.873C187.999 200.873 187.999 200.674 187.999 200.554C187.999 200.434 187.999 199.396 188.239 198.798V198.558C188.239 197.919 188.239 197.281 188.239 196.642C188.278 195.964 188.278 195.284 188.239 194.606C188.239 193.848 188.239 193.13 188.239 192.331C188.239 191.533 188.239 191.333 188.239 190.815C187.297 184.782 184.992 179.044 181.499 174.036C178.006 169.029 173.417 164.884 168.082 161.916Z" fill="#6550B0"/>
</g>
<path d="M130.163 135.173C125.692 131.181 124.255 140.122 122.778 144.353C121.302 148.584 116.232 158.403 117.15 184.108C117.132 184.308 117.132 184.508 117.15 184.707C117.15 185.705 117.39 186.663 120.583 178.401C123.184 172.405 127.983 167.634 133.994 165.069C132.829 163.245 132.085 161.185 131.816 159.038C131.547 156.891 131.759 154.71 132.438 152.656C134.114 147.267 133.715 138.206 130.163 135.173Z" fill="#7E65D5"/>
<mask id="mask11_764_6230" style="mask-type:luminance" maskUnits="userSpaceOnUse" x="117" y="134" width="17" height="52">
<path d="M130.163 135.173C125.692 131.181 124.255 140.122 122.778 144.353C121.302 148.584 116.232 158.403 117.15 184.108C117.132 184.308 117.132 184.508 117.15 184.707C117.15 185.705 117.39 186.663 120.583 178.401C123.184 172.405 127.983 167.634 133.994 165.069C132.829 163.245 132.085 161.185 131.816 159.038C131.547 156.891 131.759 154.71 132.438 152.656C134.114 147.267 133.715 138.206 130.163 135.173Z" fill="white"/>
</mask>
<g mask="url(#mask11_764_6230)">
<path d="M168.082 161.916C165.809 160.689 163.358 159.827 160.817 159.361C159.504 159.075 158.168 158.901 156.826 158.842C155.828 158.842 154.75 158.842 153.632 158.842H153.273C152.116 158.842 150.958 158.842 149.84 159.082L148.084 159.361C141.937 160.599 118.667 164.071 118.188 186.583C118.188 186.902 118.188 187.302 118.188 187.701C118.188 188.1 118.188 189.098 118.188 189.896V190.215C118.188 191.014 118.188 191.852 118.188 192.65C118.208 192.809 118.208 192.97 118.188 193.129C118.188 193.967 118.388 194.806 118.507 195.524C118.507 195.524 118.507 195.764 118.507 195.883C118.625 196.571 118.785 197.251 118.986 197.919C119.009 198.131 119.009 198.345 118.986 198.558C119.044 199.088 119.044 199.624 118.986 200.154C119.004 200.487 119.004 200.82 118.986 201.152C118.986 201.671 118.986 202.27 118.986 202.908C119.006 203.267 119.006 203.627 118.986 203.986C118.926 205.183 118.926 206.382 118.986 207.578C118.986 208.057 118.986 208.576 118.986 209.095C119.196 210.754 119.626 212.379 120.264 213.925C121.174 215.759 122.344 217.452 123.736 218.954C133.954 231.407 153.393 230.929 170.596 221.07L173.27 219.433L174.268 218.794L175.705 217.836L176.863 216.998L177.901 216.28L179.058 215.322L179.856 214.643C180.248 214.318 180.621 213.972 180.974 213.605L181.613 213.007L182.65 211.929L183.169 211.37L184.087 210.173L184.487 209.694C184.806 209.255 185.045 208.856 185.325 208.417L185.604 207.977C185.884 207.538 186.123 207.059 186.363 206.62C186.412 206.467 186.479 206.32 186.562 206.181L187.161 204.744V204.385L187.64 202.828C187.64 202.828 187.64 202.828 187.64 202.509C187.793 201.972 187.913 201.425 187.999 200.873C187.999 200.873 187.999 200.673 187.999 200.553C187.999 200.434 187.999 199.396 188.239 198.797V198.558C188.239 197.919 188.239 197.28 188.239 196.642C188.278 195.964 188.278 195.284 188.239 194.606C188.239 193.848 188.239 193.129 188.239 192.331C188.239 191.533 188.239 191.333 188.239 190.814C187.297 184.782 184.992 179.044 181.499 174.036C178.006 169.028 173.417 164.883 168.082 161.916Z" fill="#6550B0"/>
</g>
<path d="M166.884 164.151C164.619 162.948 162.183 162.1 159.66 161.637C158.347 161.35 157.011 161.177 155.668 161.118C154.67 161.118 153.553 161.118 152.475 161.118H152.116C150.968 161.137 149.822 161.216 148.683 161.357L146.927 161.637C140.78 162.874 117.47 166.347 117.031 188.858V189.976C117.031 190.615 117.031 191.373 117.031 192.131V192.491C117.031 193.289 117.031 194.127 117.031 194.926C117.031 194.926 117.031 195.245 117.031 195.405C117.031 196.243 117.031 197.041 117.31 197.799C117.329 197.918 117.329 198.04 117.31 198.159C117.41 198.85 117.57 199.531 117.789 200.194C117.827 200.392 117.827 200.595 117.789 200.793C117.849 201.337 117.849 201.886 117.789 202.43C117.807 202.762 117.807 203.095 117.789 203.427C117.789 203.946 117.789 204.545 117.789 205.184C117.789 205.822 117.789 205.902 117.789 206.261C117.709 207.457 117.709 208.658 117.789 209.854C117.789 210.333 117.789 210.852 117.789 211.37C118.077 212.985 118.573 214.555 119.266 216.04C120.059 217.881 121.107 219.601 122.379 221.15C132.598 233.603 152.036 233.124 169.239 223.265L171.914 221.629L172.872 220.99L174.348 220.032L175.506 219.194L176.544 218.435L177.701 217.517L178.5 216.839C178.885 216.591 179.258 216.325 179.617 216.04L180.256 215.442L181.294 214.364C181.465 214.188 181.625 214.001 181.773 213.805C182.116 213.426 182.436 213.026 182.731 212.608L183.13 212.129L183.968 210.852L184.247 210.413C184.518 209.977 184.758 209.524 184.966 209.055L185.205 208.616C185.418 208.191 185.618 207.712 185.804 207.179C185.789 207.06 185.789 206.939 185.804 206.82L186.283 205.263C186.265 205.158 186.265 205.05 186.283 204.944L186.642 203.308C186.642 203.308 186.642 203.108 186.642 202.988L186.882 201.232V200.993C186.882 200.354 186.882 199.715 186.882 199.077V198.877C186.882 198.238 186.882 197.52 186.882 196.841C186.882 196.123 186.882 195.405 186.882 194.606C186.882 193.808 186.882 193.608 186.682 193.089C185.785 187.083 183.538 181.358 180.109 176.345C176.68 171.333 172.158 167.164 166.884 164.151Z" fill="#C6B8FF"/>
<mask id="mask12_764_6230" style="mask-type:luminance" maskUnits="userSpaceOnUse" x="117" y="161" width="70" height="70">
<path d="M166.884 164.151C164.619 162.948 162.183 162.1 159.66 161.637C158.347 161.35 157.011 161.177 155.668 161.118C154.67 161.118 153.553 161.118 152.475 161.118H152.116C150.968 161.137 149.822 161.216 148.683 161.357L146.927 161.637C140.78 162.874 117.47 166.347 117.031 188.858V189.976C117.031 190.615 117.031 191.373 117.031 192.131V192.491C117.031 193.289 117.031 194.127 117.031 194.926C117.031 194.926 117.031 195.245 117.031 195.405C117.031 196.243 117.031 197.041 117.31 197.799C117.329 197.918 117.329 198.04 117.31 198.159C117.41 198.85 117.57 199.531 117.789 200.194C117.827 200.392 117.827 200.595 117.789 200.793C117.849 201.337 117.849 201.886 117.789 202.43C117.807 202.762 117.807 203.095 117.789 203.427C117.789 203.946 117.789 204.545 117.789 205.184C117.789 205.822 117.789 205.902 117.789 206.261C117.709 207.457 117.709 208.658 117.789 209.854C117.789 210.333 117.789 210.852 117.789 211.37C118.077 212.985 118.573 214.555 119.266 216.04C120.059 217.881 121.107 219.601 122.379 221.15C132.598 233.603 152.036 233.124 169.239 223.265L171.914 221.629L172.872 220.99L174.348 220.032L175.506 219.194L176.544 218.435L177.701 217.517L178.5 216.839C178.885 216.591 179.258 216.325 179.617 216.04L180.256 215.442L181.294 214.364C181.465 214.188 181.625 214.001 181.773 213.805C182.116 213.426 182.436 213.026 182.731 212.608L183.13 212.129L183.968 210.852L184.247 210.413C184.518 209.977 184.758 209.524 184.966 209.055L185.205 208.616C185.418 208.191 185.618 207.712 185.804 207.179C185.789 207.06 185.789 206.939 185.804 206.82L186.283 205.263C186.265 205.158 186.265 205.05 186.283 204.944L186.642 203.308C186.642 203.308 186.642 203.108 186.642 202.988L186.882 201.232V200.993C186.882 200.354 186.882 199.715 186.882 199.077V198.877C186.882 198.238 186.882 197.52 186.882 196.841C186.882 196.123 186.882 195.405 186.882 194.606C186.882 193.808 186.882 193.608 186.682 193.089C185.785 187.083 183.538 181.358 180.109 176.345C176.68 171.333 172.158 167.164 166.884 164.151Z" fill="white"/>
</mask>
<g mask="url(#mask12_764_6230)">
<path d="M179.497 221.469C186.53 221.469 192.23 215.768 192.23 208.736C192.23 201.704 186.53 196.003 179.497 196.003C172.465 196.003 166.765 201.704 166.765 208.736C166.765 215.768 172.465 221.469 179.497 221.469Z" fill="#B6A6F6"/>
<path d="M125.652 231.288C132.684 231.288 138.385 225.587 138.385 218.555C138.385 211.523 132.684 205.822 125.652 205.822C118.62 205.822 112.919 211.523 112.919 218.555C112.919 225.587 118.62 231.288 125.652 231.288Z" fill="#B6A6F6"/>
</g>
<path d="M176.663 205.503H176.424C176.168 205.428 175.951 205.258 175.817 205.028C175.683 204.798 175.643 204.525 175.705 204.266L176.982 198.997C177.046 198.737 177.21 198.514 177.438 198.375C177.667 198.237 177.94 198.195 178.2 198.258C178.459 198.322 178.683 198.486 178.821 198.714C178.96 198.942 179.002 199.216 178.938 199.476L177.661 204.745C177.606 204.966 177.478 205.162 177.296 205.3C177.114 205.438 176.891 205.51 176.663 205.503Z" fill="white"/>
<path d="M172.273 205.862H172.033C171.904 205.83 171.782 205.772 171.676 205.691C171.569 205.611 171.48 205.511 171.413 205.395C171.346 205.28 171.303 205.152 171.286 205.02C171.269 204.888 171.279 204.753 171.315 204.625L172.592 199.396C172.62 199.267 172.674 199.145 172.75 199.037C172.825 198.93 172.921 198.838 173.033 198.767C173.144 198.697 173.268 198.649 173.398 198.627C173.528 198.604 173.661 198.608 173.79 198.638C174.037 198.712 174.248 198.876 174.38 199.097C174.513 199.319 174.559 199.582 174.508 199.835L173.231 205.104C173.184 205.322 173.063 205.517 172.888 205.655C172.714 205.794 172.496 205.867 172.273 205.862Z" fill="white"/>
<path d="M129.564 216.04H129.325C129.069 215.966 128.852 215.796 128.718 215.565C128.584 215.335 128.544 215.062 128.606 214.803L129.883 209.574C129.912 209.445 129.965 209.324 130.041 209.216C130.116 209.108 130.213 209.016 130.324 208.945C130.435 208.875 130.56 208.827 130.689 208.805C130.819 208.783 130.952 208.786 131.081 208.816C131.209 208.844 131.331 208.898 131.439 208.973C131.547 209.049 131.639 209.145 131.71 209.256C131.78 209.368 131.828 209.492 131.85 209.622C131.872 209.752 131.869 209.885 131.839 210.013L130.562 215.282C130.507 215.503 130.378 215.699 130.197 215.837C130.015 215.975 129.792 216.047 129.564 216.04Z" fill="white"/>
<path d="M125.173 216.32H124.934C124.804 216.287 124.683 216.229 124.576 216.149C124.47 216.069 124.38 215.968 124.313 215.853C124.246 215.737 124.203 215.61 124.186 215.477C124.169 215.345 124.179 215.211 124.215 215.082L125.493 209.853C125.521 209.725 125.574 209.603 125.65 209.495C125.726 209.387 125.822 209.295 125.933 209.225C126.045 209.154 126.169 209.106 126.299 209.084C126.429 209.062 126.562 209.066 126.69 209.095C126.819 209.127 126.941 209.185 127.048 209.266C127.154 209.346 127.244 209.447 127.311 209.562C127.378 209.677 127.421 209.805 127.438 209.937C127.454 210.07 127.444 210.204 127.408 210.332L126.131 215.561C126.085 215.779 125.964 215.975 125.789 216.113C125.614 216.251 125.396 216.325 125.173 216.32Z" fill="white"/>
<path d="M144.212 198.877C143.374 195.484 134.633 174.928 118.827 189.816C118.352 190.835 118.106 191.945 118.106 193.069C118.106 194.193 118.352 195.303 118.827 196.322C126.051 208.297 141.418 199.356 143.534 199.675C144.731 200.074 144.532 199.396 144.212 198.877Z" fill="#B6A6F6"/>
<path d="M180.016 176.126C156.067 166.187 156.466 193.968 157.065 196.083C157.065 196.083 157.065 195.604 157.744 194.726C160.367 196.564 163.572 197.38 166.755 197.02C169.939 196.66 172.88 195.148 175.027 192.77C184.806 184.109 183.129 180.716 180.016 176.126Z" fill="#B6A6F6"/>
<path d="M158.702 194.207C160.764 194.62 162.878 194.715 164.968 194.487C167.014 194.261 169.002 193.666 170.836 192.73C172.684 191.857 174.319 190.59 175.626 189.018C176.901 187.45 177.936 185.701 178.699 183.829C178.848 183.504 179.06 183.212 179.323 182.969C179.585 182.726 179.893 182.537 180.228 182.413C180.564 182.288 180.92 182.231 181.278 182.245C181.635 182.259 181.986 182.343 182.311 182.492C182.636 182.641 182.929 182.853 183.172 183.116C183.415 183.378 183.604 183.686 183.728 184.021C183.852 184.357 183.909 184.713 183.895 185.071C183.882 185.428 183.798 185.779 183.649 186.104C182.472 188.4 180.966 190.512 179.178 192.371C177.366 194.247 175.175 195.717 172.752 196.682C170.399 197.671 167.879 198.199 165.328 198.239C162.833 198.328 160.34 198.018 157.943 197.32C157.541 197.191 157.204 196.912 157.003 196.54C156.802 196.168 156.753 195.732 156.866 195.325C156.969 194.94 157.219 194.611 157.563 194.41C157.906 194.208 158.315 194.15 158.702 194.247V194.207Z" fill="#1C1C2D"/>
<path d="M183.13 186.463C183.13 186.463 186.203 181.354 189.237 180.396C182.212 179.438 179.418 182.153 178.699 183.989C177.981 185.825 183.13 186.463 183.13 186.463Z" fill="#1C1C2D"/>
<path d="M144.013 201.392C142.211 202.793 140.205 203.91 138.066 204.705C135.878 205.495 133.566 205.887 131.24 205.862C128.858 205.806 126.511 205.277 124.335 204.305C122.187 203.283 120.208 201.937 118.468 200.314C117.912 199.854 117.562 199.191 117.494 198.472C117.427 197.754 117.648 197.038 118.108 196.482C118.569 195.926 119.231 195.576 119.95 195.509C120.668 195.442 121.384 195.662 121.94 196.123C123.174 197.447 124.6 198.577 126.171 199.476C127.704 200.358 129.403 200.915 131.16 201.112C132.995 201.303 134.848 201.154 136.629 200.673C138.44 200.187 140.173 199.448 141.778 198.478C142.117 198.24 142.536 198.146 142.944 198.217C143.352 198.288 143.715 198.518 143.953 198.857C144.191 199.196 144.285 199.615 144.214 200.023C144.143 200.431 143.913 200.794 143.574 201.032L144.013 201.392Z" fill="#1C1C2D"/>
<path d="M119.106 200.474C117.045 198.824 114.576 197.762 111.961 197.4C117.55 194.247 120.783 195.644 122.02 196.961C123.257 198.279 119.106 200.474 119.106 200.474Z" fill="#1C1C2D"/>
<path d="M152.435 203.627C152.258 203.291 151.972 203.025 151.624 202.872C151.276 202.72 150.886 202.691 150.519 202.789C150.097 202.918 149.743 203.208 149.534 203.597C149.325 203.985 149.277 204.441 149.401 204.864C149.272 204.441 148.983 204.084 148.596 203.868C148.21 203.652 147.754 203.595 147.326 203.707C146.916 203.828 146.569 204.104 146.36 204.477C146.152 204.85 146.097 205.29 146.208 205.703V205.942C146.356 206.222 146.577 206.456 146.847 206.621L149.801 208.377C149.87 208.429 149.954 208.457 150.04 208.457C150.126 208.457 150.21 208.429 150.28 208.377L152.036 205.423C152.19 205.168 152.291 204.885 152.332 204.59C152.373 204.295 152.354 203.994 152.275 203.707C152.275 203.707 152.435 203.707 152.435 203.627Z" fill="#1C1C2D"/>
<path d="M151.676 212.927C151.495 212.937 151.315 212.893 151.159 212.801C151.002 212.708 150.877 212.572 150.798 212.408C150.089 210.786 149.528 209.102 149.122 207.379C149.092 207.25 149.089 207.117 149.111 206.987C149.133 206.858 149.181 206.733 149.252 206.622C149.322 206.511 149.414 206.414 149.522 206.339C149.63 206.263 149.752 206.21 149.88 206.181C150.006 206.146 150.138 206.136 150.268 206.153C150.397 206.171 150.522 206.214 150.634 206.282C150.747 206.349 150.844 206.438 150.92 206.545C150.996 206.651 151.05 206.772 151.078 206.9C151.417 208.475 151.911 210.013 152.555 211.49C152.617 211.602 152.656 211.726 152.67 211.854C152.683 211.981 152.671 212.11 152.634 212.233C152.597 212.356 152.535 212.47 152.453 212.569C152.371 212.667 152.27 212.748 152.155 212.807C152.007 212.884 151.843 212.925 151.676 212.927Z" fill="#1C1C2D"/>
<path d="M231.826 239.75C216.468 245.944 199.92 248.628 183.392 247.605C166.863 246.582 150.773 241.877 136.296 233.836C121.82 225.794 109.324 214.619 99.7221 201.127C90.1202 187.635 83.6551 172.168 80.7996 155.856C77.9441 139.544 78.7704 122.8 83.2181 106.848C87.6659 90.8971 95.6225 76.1414 106.506 63.6604C117.39 51.1794 130.926 41.2888 146.123 34.7117C161.321 28.1346 177.797 25.0374 194.346 25.6466C195.744 25.7562 197.133 25.3472 198.249 24.4977C199.365 23.6482 200.129 22.4177 200.396 21.0408C200.662 19.6639 200.412 18.2372 199.694 17.0327C198.976 15.8282 197.839 14.9303 196.501 14.5103C170.311 5.99514 142.236 5.12873 115.571 12.0128C88.9059 18.8969 64.7584 33.2457 45.9638 53.3746C27.1691 73.5034 14.5073 98.5766 9.46514 125.65C4.42296 152.724 7.20969 180.674 17.4981 206.22C27.7865 231.765 45.1496 253.844 67.5486 269.866C89.9476 285.888 116.453 295.186 143.952 296.67C171.451 298.154 198.803 291.761 222.796 278.243C246.789 264.724 266.427 244.641 279.404 220.351C279.983 219.145 280.12 217.774 279.791 216.478C279.463 215.181 278.689 214.041 277.605 213.257C276.521 212.472 275.197 212.094 273.862 212.187C272.528 212.28 271.268 212.838 270.304 213.765C259.462 225.053 246.347 233.91 231.826 239.75Z" fill="#F9EAC2"/>
<mask id="mask13_764_6230" style="mask-type:luminance" maskUnits="userSpaceOnUse" x="7" y="7" width="273" height="290">
<path d="M231.826 239.75C216.468 245.944 199.92 248.628 183.392 247.605C166.863 246.582 150.773 241.877 136.296 233.836C121.82 225.794 109.324 214.619 99.7221 201.127C90.1202 187.635 83.6551 172.168 80.7996 155.856C77.9441 139.544 78.7704 122.8 83.2181 106.848C87.6659 90.8971 95.6225 76.1414 106.506 63.6604C117.39 51.1794 130.926 41.2888 146.123 34.7117C161.321 28.1346 177.797 25.0374 194.346 25.6466C195.744 25.7562 197.133 25.3472 198.249 24.4977C199.365 23.6482 200.129 22.4177 200.396 21.0408C200.662 19.6639 200.412 18.2372 199.694 17.0327C198.976 15.8282 197.839 14.9303 196.501 14.5103C170.311 5.99514 142.236 5.12873 115.571 12.0128C88.9059 18.8969 64.7584 33.2457 45.9638 53.3746C27.1691 73.5034 14.5073 98.5766 9.46514 125.65C4.42296 152.724 7.20969 180.674 17.4981 206.22C27.7865 231.765 45.1496 253.844 67.5486 269.866C89.9476 285.888 116.453 295.186 143.952 296.67C171.451 298.154 198.803 291.761 222.796 278.243C246.789 264.724 266.427 244.641 279.404 220.351C279.983 219.145 280.12 217.774 279.791 216.478C279.463 215.181 278.689 214.041 277.605 213.257C276.521 212.472 275.197 212.094 273.862 212.187C272.528 212.28 271.268 212.838 270.304 213.765C259.462 225.053 246.347 233.91 231.826 239.75Z" fill="white"/>
</mask>
<g mask="url(#mask13_764_6230)">
<path d="M236.216 301.658C308.235 301.658 366.618 243.275 366.618 171.256C366.618 99.2369 308.235 40.854 236.216 40.854C164.197 40.854 105.814 99.2369 105.814 171.256C105.814 243.275 164.197 301.658 236.216 301.658Z" fill="#F6DC87"/>
<path d="M236.217 292.876C212.151 292.884 188.624 285.754 168.611 272.389C148.598 259.024 132.998 240.024 123.785 217.792C114.572 195.559 112.159 171.094 116.852 147.491C121.545 123.887 133.133 102.206 150.15 85.1887C167.167 68.1718 188.848 56.584 212.452 51.891C236.055 47.1979 260.52 49.6106 282.753 58.8237C304.985 68.0369 323.985 83.6366 337.35 103.65C350.715 123.663 357.845 147.19 357.837 171.256C357.795 203.498 344.968 234.408 322.169 257.208C299.369 280.007 268.459 292.834 236.217 292.876ZM236.217 51.5909C212.533 51.5909 189.382 58.6138 169.69 71.7715C149.998 84.9292 134.65 103.631 125.587 125.511C116.524 147.392 114.152 171.468 118.773 194.696C123.393 217.925 134.798 239.261 151.544 256.008C168.291 272.754 189.627 284.159 212.856 288.779C236.084 293.399 260.16 291.028 282.041 281.965C303.921 272.902 322.623 257.554 335.781 237.862C348.938 218.17 355.961 195.019 355.961 171.335C355.961 155.61 352.864 140.039 346.846 125.511C340.828 110.983 332.008 97.7825 320.889 86.6632C309.769 75.5439 296.569 66.7236 282.041 60.7059C267.513 54.6882 251.942 51.5909 236.217 51.5909Z" fill="#F9EAC2"/>
<path d="M192.989 317.943C167 317.943 141.595 310.237 119.987 295.798C98.3783 281.36 81.5365 260.838 71.5911 236.828C61.6458 212.818 59.0436 186.398 64.1137 160.908C69.1838 135.419 81.6984 112.006 100.075 93.6297C118.452 75.2531 141.865 62.7385 167.354 57.6684C192.843 52.5983 219.263 55.2005 243.273 65.1458C267.283 75.0912 287.805 91.933 302.243 113.542C316.682 135.15 324.388 160.555 324.388 186.543C324.304 221.367 310.433 254.74 285.809 279.364C261.185 303.988 227.812 317.859 192.989 317.943ZM192.989 57.1394C167.395 57.1394 142.376 64.7288 121.096 78.9478C99.8153 93.1669 83.2292 113.377 73.435 137.023C63.6407 160.668 61.078 186.687 66.0711 211.789C71.0642 236.891 83.3887 259.948 101.486 278.046C119.584 296.143 142.641 308.468 167.743 313.461C192.845 318.454 218.864 315.891 242.509 306.097C266.155 296.303 286.365 279.717 300.584 258.436C314.803 237.156 322.393 212.137 322.393 186.543C322.361 152.233 308.717 119.337 284.456 95.0759C260.195 70.8148 227.299 57.1711 192.989 57.1394Z" fill="#F6DC87"/>
<path d="M192.989 328.72C164.874 328.696 137.397 320.338 114.032 304.701C90.6671 289.064 72.4626 266.851 61.7199 240.869C50.9773 214.888 48.1788 186.304 53.6782 158.733C59.1776 131.161 72.7281 105.839 92.6166 85.967C112.505 66.0953 137.839 52.5661 165.415 47.0899C192.991 41.6137 221.572 44.4362 247.545 55.2008C273.517 65.9653 295.715 84.1885 311.332 107.567C326.95 130.945 335.285 158.429 335.285 186.543C335.253 224.262 320.247 260.425 293.565 287.085C266.883 313.745 230.707 328.72 192.989 328.72ZM192.989 46.4024C165.26 46.3945 138.152 54.6102 115.093 70.0105C92.0345 85.4107 74.061 107.304 63.4461 132.92C52.8312 158.536 50.0517 186.725 55.4594 213.921C60.867 241.118 74.2188 266.099 93.8258 285.706C113.433 305.313 138.414 318.665 165.611 324.073C192.807 329.48 220.996 326.701 246.612 316.086C272.228 305.471 294.121 287.497 309.522 264.439C324.922 241.38 333.138 214.272 333.13 186.543C333.087 149.389 318.309 113.768 292.037 87.4954C265.764 61.223 230.143 46.4446 192.989 46.4024Z" fill="#F6DC87"/>
</g>
<path d="M114.236 216.799C113.398 214.483 116.631 212.049 119.864 211.969C121.458 211.962 123.028 212.362 124.425 213.13C125.821 213.898 126.999 215.01 127.847 216.359C133.755 224.063 138.225 240.308 126.73 242.943C121.301 244.02 118.747 230.729 118.108 223.504C117.589 220.231 115.514 220.391 114.236 216.799Z" fill="#C6B8FF"/>
<path d="M191.591 235.758C188.404 231.424 183.776 228.368 178.539 227.137C169.159 224.542 164.17 234.042 165.168 239.869C166.166 245.697 187.879 239.51 191.591 235.758Z" fill="#B6A6F6"/>
<path d="M185.963 231.487C189.356 230.769 192.19 234.561 191.831 238.153C191.591 240.787 189.875 243.981 184.407 246.735C172.752 252.642 149.401 256.195 147.645 243.222C147.007 237.115 165.886 235.239 176.025 235.239C180.695 234.92 180.775 232.645 185.963 231.487Z" fill="#C6B8FF"/>
<path d="M162.693 253.041C160.677 253.051 158.663 252.917 156.666 252.642C150.998 251.724 146.927 248.651 146.488 244.659C146.168 241.506 148.404 238.752 152.634 237.035C158.283 235.118 164.238 234.265 170.197 234.521C172.529 234.666 174.87 234.464 177.142 233.922C177.262 233.863 177.392 233.83 177.525 233.825C177.659 233.819 177.791 233.842 177.915 233.891C178.039 233.94 178.152 234.014 178.245 234.108C178.339 234.203 178.412 234.316 178.459 234.441C178.512 234.561 178.541 234.691 178.543 234.823C178.546 234.954 178.522 235.085 178.474 235.207C178.426 235.33 178.354 235.442 178.262 235.536C178.171 235.631 178.061 235.706 177.94 235.758C175.42 236.444 172.802 236.701 170.197 236.516C164.499 236.275 158.805 237.073 153.393 238.871C150.04 240.229 148.244 242.264 148.483 244.42C148.803 247.293 152.475 249.808 156.985 250.527C167.243 252.163 188.159 249.249 190.194 239.71C190.473 238.664 190.524 237.571 190.345 236.504C190.166 235.437 189.761 234.42 189.157 233.523C186.706 230.868 183.4 229.158 179.816 228.693C179.685 228.678 179.558 228.638 179.442 228.573C179.327 228.509 179.225 228.422 179.144 228.318C179.062 228.214 179.002 228.095 178.966 227.967C178.931 227.84 178.922 227.707 178.938 227.576C178.978 227.314 179.116 227.078 179.323 226.915C179.531 226.752 179.793 226.674 180.056 226.697C184.205 227.219 188.022 229.234 190.793 232.365C191.596 233.513 192.134 234.824 192.369 236.204C192.604 237.585 192.529 239 192.15 240.348C190.115 249.768 173.71 253.041 162.693 253.041Z" fill="#1C1C2D"/>
<path d="M148.563 217.238C147.585 217.21 146.616 217.035 145.69 216.719C145.445 216.613 145.251 216.417 145.147 216.172C145.043 215.927 145.037 215.651 145.131 215.402C145.229 215.16 145.417 214.967 145.656 214.862C145.894 214.758 146.164 214.751 146.408 214.843C146.983 215.083 147.601 215.207 148.224 215.207C148.848 215.207 149.465 215.083 150.04 214.843C150.375 214.579 150.641 214.238 150.815 213.848C150.988 213.459 151.065 213.033 151.038 212.608C151.052 212.411 151.123 212.222 151.244 212.066C151.365 211.909 151.529 211.792 151.717 211.73C151.895 211.667 152.087 211.657 152.27 211.699C152.454 211.742 152.622 211.835 152.754 211.969C153.116 212.392 153.562 212.735 154.064 212.976C154.565 213.216 155.112 213.349 155.668 213.366C156.78 213.186 157.78 212.586 158.462 211.69C158.621 211.478 158.857 211.338 159.119 211.301C159.381 211.263 159.648 211.331 159.859 211.49C160.071 211.649 160.211 211.885 160.248 212.147C160.286 212.409 160.218 212.675 160.059 212.887C159.024 214.224 157.504 215.098 155.828 215.322C154.726 215.395 153.631 215.1 152.715 214.484C152.421 215.341 151.843 216.073 151.078 216.559C150.318 217.011 149.448 217.246 148.563 217.238Z" fill="#1C1C2D"/>
<path d="M94.9175 244.3C94.3317 244.302 93.7604 244.118 93.2867 243.773C92.8129 243.429 92.4614 242.942 92.2831 242.384C91.5903 242.556 90.8576 242.453 90.2395 242.096C89.6215 241.738 89.1664 241.155 88.9702 240.468C88.7677 239.759 88.8538 238.999 89.2097 238.353C89.5603 237.755 90.1121 237.303 90.7663 237.075C90.5957 236.399 90.6959 235.683 91.0457 235.08C91.4024 234.447 91.9882 233.976 92.6823 233.762C93.3756 233.563 94.1194 233.644 94.7538 233.987C95.3882 234.331 95.8626 234.909 96.075 235.599C96.4059 235.497 96.7545 235.465 97.0983 235.507C97.4421 235.548 97.7734 235.661 98.0708 235.838C98.5405 236.098 98.9241 236.489 99.1746 236.963C99.425 237.438 99.5313 237.975 99.4805 238.51C99.4296 239.044 99.2237 239.552 98.8882 239.971C98.5526 240.389 98.1021 240.701 97.5918 240.867C97.7606 241.557 97.6607 242.284 97.3124 242.903C96.9544 243.526 96.3671 243.984 95.6759 244.18L94.9175 244.3ZM93.0814 240.907V241.666C93.0814 241.666 93.0814 241.905 93.0814 242.025C93.1455 242.248 93.2534 242.457 93.3989 242.639C93.5443 242.82 93.7244 242.971 93.9287 243.083C94.1329 243.194 94.3573 243.264 94.5887 243.288C94.8201 243.312 95.054 243.289 95.2767 243.222C95.4989 243.163 95.7061 243.058 95.8849 242.914C96.0637 242.769 96.2101 242.589 96.3145 242.384C96.4034 242.176 96.4493 241.952 96.4493 241.725C96.4493 241.499 96.4034 241.275 96.3145 241.067V240.748L96.1149 239.989H96.8733H97.2326C97.4562 239.925 97.6649 239.817 97.8465 239.672C98.0281 239.526 98.1789 239.346 98.2903 239.142C98.4018 238.938 98.4715 238.713 98.4954 238.482C98.5194 238.25 98.4972 238.017 98.43 237.794C98.2942 237.353 97.9941 236.982 97.5918 236.756C97.3836 236.667 97.1596 236.621 96.9332 236.621C96.7068 236.621 96.4828 236.667 96.2746 236.756H95.9154L95.2767 237.115V236.357C95.2954 236.238 95.2954 236.117 95.2767 235.998C95.1468 235.555 94.8478 235.181 94.4445 234.957C94.0412 234.733 93.5659 234.677 93.1213 234.8C92.6806 234.936 92.309 235.236 92.0835 235.638C91.9946 235.847 91.9487 236.071 91.9487 236.297C91.9487 236.523 91.9946 236.747 92.0835 236.956V237.315L92.4428 237.993H91.6844H91.3251C91.103 238.052 90.8958 238.158 90.717 238.302C90.5382 238.446 90.3918 238.627 90.2874 238.832C90.1984 239.04 90.1526 239.264 90.1526 239.49C90.1526 239.717 90.1984 239.941 90.2874 240.149C90.4173 240.592 90.7163 240.965 91.1196 241.189C91.5229 241.413 91.9982 241.47 92.4428 241.346H92.802L93.0814 240.907Z" fill="white"/>
<path d="M89.5294 246.216H89.25C89.2673 246.124 89.2673 246.029 89.25 245.936C89.1992 245.742 89.11 245.559 88.9878 245.399C88.8655 245.239 88.7126 245.105 88.538 245.004C88.3633 244.904 88.1705 244.839 87.9707 244.814C87.7708 244.789 87.568 244.805 87.374 244.859C86.9774 244.97 86.6412 245.235 86.4392 245.594C86.2372 245.953 86.1858 246.378 86.2963 246.775V247.054H86.0169C85.823 247.109 85.6418 247.202 85.4837 247.327C85.3256 247.452 85.1936 247.607 85.0954 247.783C84.9972 247.959 84.9346 248.153 84.9112 248.353C84.8879 248.553 84.9042 248.756 84.9592 248.95C85.0142 249.144 85.1069 249.325 85.232 249.483C85.3571 249.641 85.5121 249.773 85.6881 249.872C85.8642 249.97 86.0578 250.032 86.2581 250.056C86.4583 250.079 86.6612 250.063 86.8551 250.008H87.1346C87.1346 250.008 87.1346 250.008 87.1346 250.327C87.2546 250.716 87.5225 251.043 87.8807 251.237C88.2389 251.431 88.6588 251.477 89.0505 251.365C89.4367 251.254 89.763 250.993 89.9576 250.642C90.1522 250.29 90.1992 249.875 90.0882 249.489V249.209H90.4076C90.7993 249.098 91.1307 248.836 91.3291 248.481C91.5275 248.125 91.5765 247.705 91.4653 247.314C91.3542 246.922 91.092 246.59 90.7364 246.392C90.3808 246.194 89.961 246.145 89.5694 246.256L89.5294 246.216Z" fill="#F6DC87"/>
<path d="M131.719 254.279C131.632 254.166 131.525 254.071 131.402 254C131.279 253.929 131.143 253.883 131.002 253.865C130.717 253.827 130.43 253.904 130.202 254.079C129.975 254.254 129.826 254.512 129.788 254.796C129.751 255.081 129.828 255.368 130.003 255.596H129.803C129.575 255.77 129.427 256.028 129.389 256.313C129.352 256.597 129.429 256.885 129.603 257.113C129.778 257.34 130.036 257.489 130.321 257.527C130.605 257.564 130.893 257.487 131.12 257.312C131.295 257.54 131.553 257.689 131.837 257.726C132.122 257.764 132.409 257.686 132.637 257.512C132.865 257.337 133.014 257.079 133.051 256.795C133.088 256.51 133.011 256.223 132.837 255.995H133.036C133.264 255.82 133.413 255.562 133.45 255.278C133.488 254.993 133.41 254.706 133.236 254.478C133.149 254.366 133.041 254.271 132.918 254.2C132.795 254.129 132.66 254.083 132.519 254.064C132.234 254.027 131.947 254.104 131.719 254.279Z" fill="#F6DC87"/>
<path d="M139.942 243.981C134.633 246.735 129.484 249.888 123.976 252.283C118.526 254.835 112.912 257.022 107.171 258.829C104.266 259.742 101.288 260.41 98.2705 260.825C96.6476 261.123 94.9838 261.123 93.3609 260.825C92.8118 260.708 92.2933 260.478 91.8394 260.148C91.3855 259.817 91.0063 259.395 90.7266 258.909C90.5159 258.381 90.428 257.812 90.4695 257.245C90.511 256.678 90.6808 256.127 90.9661 255.636C92.6357 252.902 94.8178 250.517 97.3923 248.611C99.7872 246.695 102.262 244.978 104.817 243.302C105.004 243.178 105.215 243.092 105.436 243.051C105.657 243.01 105.884 243.013 106.104 243.062C106.324 243.11 106.532 243.202 106.715 243.333C106.898 243.463 107.054 243.629 107.171 243.821C107.414 244.192 107.499 244.643 107.41 245.077C107.32 245.511 107.062 245.892 106.692 246.136C104.178 247.653 101.703 249.249 99.3482 251.006C97.0414 252.557 95.0391 254.519 93.4408 256.793C92.9618 257.991 92.9219 257.831 94.1193 258.35C95.4404 258.573 96.7897 258.573 98.1108 258.35C101.023 258.05 103.906 257.516 106.732 256.753C112.468 255.196 118.095 253.263 123.576 250.966C129.125 248.77 134.314 245.896 139.742 243.342C139.799 243.297 139.869 243.272 139.942 243.272C140.014 243.272 140.085 243.297 140.141 243.342C140.226 243.368 140.297 243.427 140.338 243.506C140.379 243.585 140.387 243.676 140.361 243.761C140.334 243.846 140.275 243.916 140.197 243.958C140.118 243.999 140.026 244.007 139.942 243.981Z" fill="#C6B8FF"/>
<path d="M126.61 247.373C123.577 248.73 120.583 250.207 117.47 251.365C114.356 252.522 111.203 253.68 107.97 254.598C106.359 255.073 104.719 255.447 103.06 255.715C102.211 255.796 101.355 255.796 100.506 255.715C100.236 255.712 99.9688 255.653 99.7218 255.544C99.4748 255.434 99.2527 255.275 99.0689 255.077C98.9358 254.826 98.8872 254.539 98.9304 254.259C98.9735 253.978 99.1061 253.719 99.3084 253.52C101.785 251.193 104.648 249.315 107.77 247.972C107.87 247.922 107.985 247.913 108.092 247.945C108.199 247.977 108.29 248.049 108.345 248.145C108.401 248.242 108.418 248.356 108.393 248.465C108.368 248.573 108.302 248.668 108.209 248.73C105.274 250.099 102.578 251.932 100.226 254.159C99.7075 254.877 99.9869 254.997 100.865 255.157C101.662 255.233 102.464 255.233 103.26 255.157C104.785 254.842 106.29 254.442 107.77 253.959C110.964 253.081 114.077 252.003 117.19 250.806C120.304 249.609 123.297 248.172 126.331 246.814C126.353 246.789 126.381 246.769 126.412 246.755C126.443 246.741 126.476 246.733 126.51 246.733C126.544 246.733 126.578 246.741 126.609 246.755C126.64 246.769 126.668 246.789 126.69 246.814C126.69 246.814 126.77 247.293 126.61 247.373Z" fill="white"/>
<path d="M78.4917 240.045C79.6627 239.137 81.1467 238.731 82.617 238.917C84.0874 239.103 85.4238 239.865 86.3321 241.036L87.4819 242.518C86.3109 243.427 84.8269 243.833 83.3566 243.647C81.8862 243.461 80.5499 242.699 79.6415 241.528L78.4917 240.045Z" fill="white"/>
<path d="M110.963 26.5248C110.739 26.4836 110.509 26.4836 110.285 26.5248C110.305 26.2858 110.305 26.0454 110.285 25.8064C110.222 25.3482 110.067 24.9072 109.831 24.5094C109.595 24.1116 109.282 23.7649 108.911 23.4898C108.539 23.2146 108.116 23.0165 107.666 22.9071C107.217 22.7977 106.75 22.7792 106.293 22.8527C105.833 22.9106 105.389 23.0614 104.988 23.2958C104.588 23.5302 104.239 23.8435 103.963 24.2166C103.687 24.5897 103.489 25.0149 103.382 25.4665C103.275 25.9182 103.261 26.3868 103.34 26.8442C103.321 27.0833 103.321 27.3235 103.34 27.5626H102.621C102.16 27.6386 101.718 27.8047 101.321 28.0515C100.924 28.2982 100.579 28.6207 100.307 29.0007C100.035 29.3806 99.8397 29.8104 99.7334 30.2657C99.6271 30.7209 99.6115 31.1926 99.6875 31.6539C99.7635 32.1152 99.9296 32.5569 100.176 32.954C100.423 33.3511 100.746 33.6957 101.126 33.9681C101.505 34.2405 101.935 34.4354 102.391 34.5417C102.846 34.648 103.318 34.6636 103.779 34.5876H104.457C104.438 34.8134 104.438 35.0404 104.457 35.2662C104.584 36.1819 105.07 37.0096 105.807 37.5673C106.545 38.1249 107.473 38.3669 108.389 38.2398C109.305 38.1128 110.132 37.6272 110.69 36.8899C111.248 36.1526 111.49 35.2239 111.363 34.3082C111.385 34.0826 111.385 33.8553 111.363 33.6297H112.081C112.534 33.5642 112.971 33.41 113.364 33.1759C113.758 32.9419 114.102 32.6326 114.376 32.2656C114.651 31.8987 114.85 31.4813 114.963 31.0374C115.076 30.5934 115.1 30.1315 115.035 29.6781C114.969 29.2247 114.815 28.7886 114.581 28.3948C114.347 28.001 114.038 27.6571 113.671 27.3829C113.304 27.1086 112.886 26.9093 112.442 26.7963C111.998 26.6833 111.537 26.6589 111.083 26.7244L110.963 26.5248Z" fill="#F6DC87"/>
<path d="M52.568 239.989H51.8894C51.912 239.817 51.912 239.642 51.8894 239.47C51.9515 239.122 51.9408 238.766 51.858 238.422C51.7751 238.079 51.622 237.757 51.4083 237.475C51.1945 237.194 50.9248 236.96 50.6161 236.789C50.3075 236.617 49.9666 236.511 49.6149 236.478C49.2633 236.445 48.9086 236.485 48.5733 236.596C48.2379 236.707 47.9292 236.886 47.6665 237.122C47.4039 237.358 47.1931 237.646 47.0474 237.968C46.9018 238.29 46.8244 238.638 46.8203 238.991C46.781 239.162 46.781 239.339 46.8203 239.51H46.3014C45.9656 239.477 45.6267 239.511 45.3041 239.61C44.9815 239.708 44.6817 239.87 44.4219 240.085C44.1621 240.301 43.9476 240.565 43.7906 240.864C43.6336 241.162 43.5373 241.489 43.5073 241.825C43.4687 242.157 43.4976 242.492 43.5921 242.813C43.6867 243.133 43.845 243.43 44.0575 243.687C44.2701 243.945 44.5324 244.156 44.8289 244.31C45.1253 244.463 45.4497 244.555 45.7825 244.579C45.953 244.62 46.1308 244.62 46.3014 244.579C46.285 244.752 46.285 244.926 46.3014 245.098C46.2404 245.444 46.2514 245.798 46.3336 246.14C46.4157 246.481 46.5674 246.802 46.7791 247.082C46.9907 247.362 47.2578 247.595 47.5637 247.768C47.8696 247.94 48.2077 248.047 48.557 248.083C48.9062 248.119 49.2591 248.082 49.5935 247.975C49.928 247.869 50.2369 247.694 50.5009 247.463C50.7649 247.231 50.9784 246.948 51.128 246.631C51.2776 246.313 51.3602 245.968 51.3706 245.617V245.098H51.8894C52.5613 245.165 53.2324 244.963 53.7559 244.537C54.2795 244.111 54.613 243.495 54.6835 242.823C54.7546 242.171 54.5759 241.516 54.1834 240.99C53.7909 240.464 53.2136 240.106 52.568 239.989Z" fill="white"/>
<path d="M75.8383 90.1089C74.8777 90.0982 73.9439 89.7915 73.164 89.2307C72.3145 88.5755 71.7213 87.6434 71.4876 86.5964C70.3125 86.7657 69.1183 86.4614 68.1676 85.7503C67.217 85.0392 66.5877 83.9795 66.4184 82.8045C66.249 81.6294 66.5533 80.4352 67.2645 79.4845C67.9756 78.5339 69.0352 77.9047 70.2103 77.7353C70.1691 76.6623 70.4927 75.6071 71.1283 74.7417C71.4773 74.2654 71.9187 73.8643 72.4262 73.5626C72.9337 73.2608 73.4969 73.0645 74.082 72.9854C75.2018 72.8367 76.3369 73.1098 77.2664 73.7517C78.196 74.3935 78.8536 75.3582 79.1113 76.458C79.9758 76.3867 80.8425 76.5662 81.6075 76.975C82.3726 77.3837 83.0036 78.0044 83.4248 78.7627C83.8461 79.5209 84.0397 80.3846 83.9826 81.2501C83.9255 82.1156 83.62 82.9463 83.1028 83.6427C82.4517 84.5046 81.5198 85.1117 80.4684 85.359C80.5421 86.4173 80.2302 87.4666 79.5903 88.3127C79.2336 88.7902 78.785 89.1916 78.2709 89.4932C77.7568 89.7948 77.1875 89.9906 76.5967 90.069L75.8383 90.1089ZM73.4833 83.962V85.4788C73.4637 85.6378 73.4637 85.7987 73.4833 85.9577C73.5225 86.2871 73.6275 86.6052 73.792 86.8932C73.9566 87.1812 74.1774 87.4332 74.4413 87.6342C74.8384 87.9291 75.3137 88.1004 75.8077 88.1266C76.3017 88.1528 76.7924 88.0326 77.2185 87.7813C77.6446 87.5299 77.987 87.1584 78.203 86.7134C78.419 86.2683 78.4989 85.7694 78.4327 85.2792V84.8002L77.9138 83.3633H79.3907H79.8298C80.4798 83.255 81.0629 82.8997 81.4572 82.3715C81.8514 81.8434 82.0263 81.1834 81.9452 80.5293C81.8983 80.2032 81.7856 79.89 81.6141 79.6087C81.4426 79.3274 81.2158 79.0839 80.9474 78.8928C80.6879 78.6961 80.3921 78.5525 80.0771 78.4703C79.762 78.3882 79.4338 78.3689 79.1113 78.4138C78.9537 78.3779 78.79 78.3779 78.6323 78.4138L77.1954 78.9327V77.416V76.8971C77.1515 76.5706 77.0429 76.2562 76.8759 75.9723C76.709 75.6884 76.487 75.4407 76.2231 75.2436C75.9591 75.0466 75.6585 74.9042 75.3388 74.8249C75.0192 74.7456 74.6869 74.7308 74.3614 74.7816C74.0378 74.8214 73.7257 74.927 73.4443 75.0917C73.1629 75.2564 72.9181 75.4769 72.7249 75.7395C72.3316 76.2655 72.1597 76.9245 72.2459 77.5756C72.2052 77.7462 72.2052 77.9239 72.2459 78.0945L72.7648 79.5314H71.2481H70.7292C70.057 79.6796 69.4712 80.0888 69.1006 80.6689C68.7301 81.2491 68.6052 81.9526 68.7534 82.6248C68.9016 83.2971 69.3108 83.8829 69.8909 84.2534C70.471 84.6239 71.1746 84.7488 71.8468 84.6006H72.3657L73.4833 83.962Z" fill="white"/>
<path d="M85.498 33.5895L85.2585 33.8689L85.019 33.5895C84.6532 33.2895 84.1894 33.1354 83.7168 33.157C83.2443 33.1785 82.7964 33.3741 82.4594 33.7061C82.1224 34.0381 81.9202 34.4831 81.8916 34.9553C81.8631 35.4275 82.0103 35.8936 82.3048 36.2637L82.6241 36.4234C82.5 36.4764 82.3904 36.5585 82.3048 36.6629C82.1274 36.8375 81.9865 37.0456 81.8903 37.2752C81.7942 37.5047 81.7446 37.7511 81.7446 38C81.7446 38.2489 81.7942 38.4953 81.8903 38.7249C81.9865 38.9545 82.1274 39.1626 82.3048 39.3372C82.4794 39.5146 82.6875 39.6555 82.9171 39.7517C83.1466 39.8478 83.3931 39.8974 83.6419 39.8974C83.8908 39.8974 84.1373 39.8478 84.3668 39.7517C84.5964 39.6555 84.8045 39.5146 84.9791 39.3372C85.0807 39.2651 85.1629 39.1692 85.2186 39.0578L85.4581 39.3372C85.818 39.6971 86.3062 39.8993 86.8152 39.8993C87.3242 39.8993 87.8124 39.6971 88.1723 39.3372C88.5322 38.9773 88.7344 38.4891 88.7344 37.9801C88.7344 37.4711 88.5322 36.9829 88.1723 36.623L87.8131 36.4234H88.2122C88.5634 36.0589 88.7596 35.5725 88.7596 35.0663C88.7596 34.5601 88.5634 34.0737 88.2122 33.7092C88.0453 33.5177 87.8412 33.3621 87.6123 33.2518C87.3834 33.1416 87.1346 33.0789 86.8808 33.0677C86.627 33.0565 86.3735 33.097 86.1358 33.1867C85.8981 33.2764 85.6811 33.4134 85.498 33.5895Z" fill="#F6DC87"/>
<path d="M59.114 252.602L58.8745 252.922L58.635 252.602C58.266 252.26 57.7812 252.07 57.2779 252.07C56.7746 252.07 56.2899 252.26 55.9208 252.602C55.5696 252.967 55.3734 253.453 55.3734 253.959C55.3734 254.466 55.5696 254.952 55.9208 255.316L56.2002 255.556L55.8809 255.955C55.7023 256.133 55.5606 256.345 55.4639 256.577C55.3672 256.81 55.3174 257.06 55.3174 257.312C55.3174 257.564 55.3672 257.814 55.4639 258.047C55.5606 258.28 55.7023 258.491 55.8809 258.669C56.2387 259.018 56.7185 259.213 57.218 259.213C57.7176 259.213 58.1974 259.018 58.5552 258.669L58.8346 258.35C58.8875 258.474 58.9697 258.584 59.0741 258.669C59.2487 258.847 59.4568 258.988 59.6864 259.084C59.9159 259.18 60.1623 259.229 60.4112 259.229C60.6601 259.229 60.9065 259.18 61.1361 259.084C61.3657 258.988 61.5738 258.847 61.7484 258.669C61.9258 258.495 62.0667 258.287 62.1628 258.057C62.259 257.827 62.3085 257.581 62.3085 257.332C62.3085 257.083 62.259 256.837 62.1628 256.607C62.0667 256.378 61.9258 256.17 61.7484 255.995C61.6763 255.893 61.5804 255.811 61.469 255.756C61.8937 255.398 62.161 254.888 62.2133 254.336C62.2655 253.783 62.0986 253.232 61.7484 252.802C61.4188 252.437 60.9615 252.213 60.4711 252.175C59.9807 252.138 59.4948 252.291 59.114 252.602Z" fill="#F6DC87"/>
<path d="M86.0454 78.4082C85.5538 76.9541 85.6599 75.3642 86.3405 73.9884C87.0211 72.6125 88.2204 71.5634 89.6745 71.0717L95.5354 69.0902C96.027 70.5443 95.9209 72.1342 95.2403 73.5101C94.5597 74.8859 93.3604 75.9351 91.9063 76.4267L86.0454 78.4082Z" fill="white"/>
<path d="M35.6441 156.727C34.658 156.724 33.684 156.508 32.7886 156.095C31.8932 155.682 31.0973 155.081 30.4552 154.332L25.7852 148.824L26.5435 148.185C27.9228 147.028 29.7034 146.462 31.4977 146.612C33.2919 146.761 34.9544 147.614 36.1231 148.984L40.7931 154.452L39.9948 155.091C38.7898 156.144 37.2444 156.725 35.6441 156.727ZM28.6989 149.143L31.972 153.135C32.6766 153.974 33.6497 154.543 34.7263 154.747C35.8029 154.951 36.9169 154.776 37.8794 154.252L34.6063 150.261C33.8973 149.428 32.9245 148.863 31.8498 148.66C30.7751 148.456 29.6632 148.627 28.6989 149.143Z" fill="white"/>
<path d="M101.903 127.19L101.105 127.469C99.0481 128.279 96.882 128.777 94.6782 128.946C93.7602 128.946 93.2812 128.547 93.2812 127.709C93.3119 127.176 93.462 126.658 93.7203 126.192C93.9596 125.676 94.2834 125.204 94.6782 124.795C95.0612 124.394 95.5059 124.057 95.9954 123.797C96.4733 123.59 96.9919 123.494 97.5122 123.518H99.1487L104.058 123.717C104.713 123.747 105.366 123.814 106.014 123.917C106.389 123.967 106.738 124.135 107.012 124.396C107.119 124.474 107.207 124.576 107.27 124.694C107.332 124.811 107.367 124.941 107.371 125.074C105.654 128.9 103.483 132.505 100.905 135.811L100.226 136.849H101.105C102.647 136.912 104.189 136.696 105.655 136.21L106.333 136.011C106.693 136.011 106.892 136.33 106.892 137.009C106.904 138.041 106.613 139.054 106.054 139.923C105.443 140.805 104.619 141.518 103.659 141.998C102.61 142.488 101.464 142.733 100.306 142.717C98.9652 142.728 97.627 142.594 96.3147 142.317C95.2841 142.124 94.2969 141.745 93.4009 141.2C93.0981 141.04 92.8406 140.806 92.6522 140.52C92.4639 140.234 92.3507 139.905 92.3232 139.563C92.3586 139.156 92.5111 138.768 92.7623 138.446C93.3222 137.709 93.9359 137.016 94.5984 136.37C94.5984 136.171 95.0774 135.811 95.5963 135.213L96.195 134.574L96.8735 133.816L97.3126 133.297L97.7517 132.818C98.8294 131.66 99.7075 130.582 100.426 129.664C100.667 129.384 100.894 129.091 101.105 128.786L102.102 127.429L101.903 127.19Z" fill="#F9EAC2"/>
<path d="M124.574 103.56L123.936 103.8C122.35 104.42 120.683 104.809 118.986 104.958C118.268 104.958 117.869 104.638 117.869 104C117.89 103.583 117.999 103.175 118.188 102.802C118.408 102.411 118.676 102.049 118.986 101.724C119.277 101.421 119.614 101.165 119.984 100.966C120.36 100.795 120.769 100.713 121.182 100.727H122.419H126.211H127.768C128.044 100.789 128.303 100.911 128.526 101.086C128.688 101.229 128.788 101.429 128.805 101.645C127.458 104.719 125.757 107.626 123.736 110.306L123.177 111.104H123.856C125.059 111.103 126.251 110.872 127.368 110.426H127.887C128.207 110.426 128.326 110.705 128.326 111.184C128.348 111.99 128.125 112.783 127.688 113.459C127.223 114.141 126.591 114.691 125.852 115.056C125.042 115.442 124.154 115.633 123.257 115.615C122.186 115.631 121.116 115.538 120.064 115.335C119.264 115.165 118.496 114.868 117.789 114.457C117.554 114.331 117.354 114.149 117.207 113.925C117.061 113.702 116.973 113.446 116.951 113.18C116.979 112.858 117.104 112.551 117.31 112.302C117.738 111.738 118.205 111.205 118.707 110.705L119.505 109.827L119.984 109.308L120.463 108.749L120.822 108.31L121.182 107.951C121.98 107.033 122.698 106.235 123.257 105.516L123.736 104.678L124.495 103.64L124.574 103.56Z" fill="#E0D1E1"/>
<path d="M147.206 79.9705H146.767C145.645 80.4258 144.461 80.7085 143.255 80.8087C142.736 80.8087 142.496 80.5692 142.496 80.1301C142.441 79.8534 142.441 79.5686 142.496 79.2919C142.639 79.0101 142.828 78.7539 143.055 78.5335C143.241 78.2874 143.489 78.0946 143.773 77.9747C144.049 77.9101 144.336 77.9101 144.612 77.9747H145.49H148.204H149.282C149.485 78.0052 149.678 78.0877 149.841 78.2142C149.89 78.3427 149.89 78.4849 149.841 78.6134C148.91 80.7159 147.731 82.6992 146.328 84.5208L145.929 85.0796H146.408C147.269 85.0829 148.123 84.9203 148.922 84.6006H149.282C149.282 84.6006 149.601 84.6006 149.601 85.1594C149.603 85.7272 149.436 86.2828 149.122 86.756C148.79 87.2385 148.335 87.6241 147.805 87.8736C147.237 88.1647 146.607 88.3153 145.969 88.3127C145.345 88.3723 144.717 88.3723 144.093 88.3127C143.513 88.2016 142.958 87.9852 142.456 87.6741C142.299 87.584 142.166 87.457 142.068 87.304C141.971 87.151 141.912 86.9766 141.897 86.7959C141.911 86.5638 141.995 86.3413 142.137 86.1573C142.437 85.7567 142.771 85.3828 143.135 85.0397L143.694 84.3212L144.013 83.962L144.372 83.5628L144.612 83.2834L144.891 83.004C145.45 82.3654 145.929 81.8066 146.328 81.2877L146.727 80.8087C146.727 80.8087 147.007 80.4095 147.246 80.0503L147.206 79.9705Z" fill="#C6B8FF"/>
</svg>
