<svg width="100" height="100" viewBox="0 0 100 100" fill="none" xmlns="http://www.w3.org/2000/svg">
<g clip-path="url(#clip0_1135_15319)">
<path d="M51.0061 70.3594C62.2526 70.3594 71.3697 61.2443 71.3697 50.0004C71.3697 38.7564 62.2526 29.6414 51.0061 29.6414C39.7597 29.6414 30.6426 38.7564 30.6426 50.0004C30.6426 61.2443 39.7597 70.3594 51.0061 70.3594Z" fill="white"/>
<path d="M50.7789 20.1377L47.6434 25.5625C47.62 25.6029 47.6076 25.6486 47.6074 25.6953C47.6072 25.7419 47.6192 25.7878 47.6421 25.8284C47.6651 25.869 47.6982 25.9029 47.7383 25.9268C47.7784 25.9507 47.824 25.9637 47.8707 25.9645H54.1418C54.1884 25.9637 54.234 25.9507 54.2741 25.9268C54.3142 25.9029 54.3473 25.869 54.3703 25.8284C54.3933 25.7878 54.4052 25.7419 54.405 25.6953C54.4048 25.6486 54.3924 25.6029 54.3691 25.5625L51.2335 20.1377C51.2118 20.0962 51.1792 20.0614 51.1391 20.0371C51.099 20.0128 51.0531 20 51.0062 20C50.9594 20 50.9134 20.0128 50.8733 20.0371C50.8333 20.0614 50.8006 20.0962 50.7789 20.1377Z" fill="white"/>
<path d="M51.2325 79.8686L54.368 74.438C54.3918 74.398 54.4045 74.3525 54.4048 74.306C54.4052 74.2596 54.3932 74.2138 54.3701 74.1735C54.347 74.1332 54.3135 74.0997 54.2732 74.0766C54.2329 74.0534 54.1872 74.0414 54.1407 74.0418H47.8696C47.8231 74.0414 47.7774 74.0534 47.7371 74.0766C47.6968 74.0997 47.6634 74.1332 47.6402 74.1735C47.6171 74.2138 47.6051 74.2596 47.6055 74.306C47.6058 74.3525 47.6186 74.398 47.6423 74.438L50.7779 79.8686C50.8009 79.9085 50.834 79.9417 50.8739 79.9648C50.9138 79.9879 50.9591 80 51.0052 80C51.0513 80 51.0965 79.9879 51.1364 79.9648C51.1763 79.9417 51.2095 79.9085 51.2325 79.8686Z" fill="white"/>
<path d="M80.8633 49.7731L75.4373 46.6382C75.3969 46.6149 75.3511 46.6025 75.3045 46.6023C75.2578 46.6021 75.2119 46.614 75.1713 46.637C75.1307 46.6599 75.0968 46.6931 75.0729 46.7332C75.049 46.7732 75.036 46.8188 75.0352 46.8655V53.1119C75.036 53.1585 75.049 53.2041 75.0729 53.2442C75.0968 53.2842 75.1307 53.3174 75.1713 53.3403C75.2119 53.3633 75.2578 53.3753 75.3045 53.375C75.3511 53.3748 75.3969 53.3624 75.4373 53.3391L80.8633 50.2334C80.9047 50.2108 80.9392 50.1776 80.9632 50.1371C80.9872 50.0966 80.9999 50.0503 80.9999 50.0032C80.9999 49.9561 80.9872 49.9099 80.9632 49.8694C80.9392 49.8289 80.9047 49.7956 80.8633 49.7731Z" fill="white"/>
<path d="M21.1307 50.2333L26.5625 53.3623C26.6025 53.3861 26.648 53.3988 26.6945 53.3992C26.741 53.3995 26.7868 53.3875 26.8271 53.3644C26.8674 53.3413 26.9008 53.3079 26.924 53.2676C26.9472 53.2273 26.9592 53.1816 26.9589 53.1351V46.8654C26.9592 46.8189 26.9472 46.7732 26.924 46.7329C26.9008 46.6926 26.8674 46.6592 26.8271 46.6361C26.7868 46.6129 26.741 46.601 26.6945 46.6013C26.648 46.6017 26.6025 46.6144 26.5625 46.6382L21.1307 49.773C21.0909 49.7968 21.0579 49.8305 21.035 49.8708C21.012 49.9112 21 49.9568 21 50.0032C21 50.0496 21.012 50.0952 21.035 50.1355C21.0579 50.1758 21.0909 50.2095 21.1307 50.2333Z" fill="white"/>
<path d="M72.2907 70.9594L70.6646 64.8995C70.653 64.8543 70.6295 64.813 70.5966 64.78C70.5637 64.7469 70.5225 64.7231 70.4774 64.7113C70.4322 64.6994 70.3847 64.6998 70.3398 64.7124C70.2948 64.725 70.2541 64.7494 70.2217 64.783L65.7923 69.2172C65.7587 69.2496 65.7343 69.2903 65.7217 69.3353C65.7091 69.3802 65.7087 69.4277 65.7205 69.4728C65.7324 69.518 65.7561 69.5591 65.7892 69.592C65.8223 69.625 65.8636 69.6484 65.9088 69.6601L71.9643 71.2799C72.009 71.2929 72.0564 71.2938 72.1016 71.2824C72.1468 71.2711 72.1881 71.2479 72.2213 71.2152C72.2546 71.1826 72.2785 71.1417 72.2907 71.0967C72.3029 71.0518 72.3029 71.0044 72.2907 70.9594Z" fill="white"/>
<path d="M29.7214 29.0469L31.3241 35.101C31.3358 35.1462 31.3592 35.1875 31.3922 35.2206C31.4251 35.2537 31.4662 35.2774 31.5114 35.2892C31.5565 35.3011 31.604 35.3007 31.649 35.2881C31.6939 35.2755 31.7347 35.2511 31.7671 35.2175L36.2023 30.7891C36.2359 30.7568 36.2603 30.716 36.2729 30.6711C36.2855 30.6261 36.2859 30.5786 36.274 30.5335C36.2621 30.4884 36.2384 30.4472 36.2053 30.4143C36.1722 30.3814 36.1309 30.3579 36.0857 30.3463L30.0419 28.7206C29.997 28.7084 29.9496 28.7084 29.9046 28.7206C29.8596 28.7327 29.8187 28.7567 29.7861 28.7899C29.7534 28.8231 29.7302 28.8645 29.7189 28.9096C29.7075 28.9548 29.7084 29.0022 29.7214 29.0469Z" fill="white"/>
<path d="M30.0421 71.2801L36.1034 69.6602C36.1486 69.6486 36.1899 69.6251 36.223 69.5922C36.2561 69.5593 36.2798 69.5181 36.2917 69.473C36.3036 69.4279 36.3032 69.3804 36.2906 69.3354C36.278 69.2905 36.2536 69.2497 36.2199 69.2174L31.7847 64.7657C31.7523 64.732 31.7116 64.7077 31.6666 64.6951C31.6217 64.6824 31.5742 64.6821 31.529 64.6939C31.4839 64.7058 31.4427 64.7295 31.4098 64.7626C31.3769 64.7957 31.3534 64.837 31.3418 64.8822L29.7216 70.9421C29.7058 70.9875 29.7028 71.0364 29.7129 71.0834C29.723 71.1304 29.7459 71.1737 29.779 71.2086C29.8121 71.2435 29.8541 71.2686 29.9005 71.2812C29.9469 71.2938 29.9959 71.2934 30.0421 71.2801Z" fill="white"/>
<path d="M71.9643 28.7206L65.9088 30.3463C65.8636 30.3579 65.8223 30.3814 65.7892 30.4143C65.7561 30.4472 65.7324 30.4884 65.7205 30.5335C65.7087 30.5786 65.7091 30.6261 65.7217 30.6711C65.7343 30.716 65.7587 30.7568 65.7923 30.7891L70.2217 35.2175C70.2541 35.2511 70.2948 35.2755 70.3398 35.2881C70.3847 35.3007 70.4322 35.3011 70.4774 35.2892C70.5225 35.2774 70.5637 35.2537 70.5966 35.2206C70.6295 35.1875 70.653 35.1462 70.6646 35.101L72.2907 29.0469C72.3023 29.0018 72.3019 28.9544 72.2896 28.9095C72.2773 28.8646 72.2535 28.8236 72.2206 28.7907C72.1876 28.7577 72.1467 28.7339 72.1017 28.7217C72.0568 28.7094 72.0094 28.709 71.9643 28.7206Z" fill="white"/>
<path d="M58.1451 44.9194C58.1451 44.1664 57.5345 43.5559 56.7813 43.5559C56.0281 43.5559 55.4175 44.1664 55.4175 44.9194V47.9027C55.4175 48.6558 56.0281 49.2662 56.7813 49.2662C57.5345 49.2662 58.1451 48.6558 58.1451 47.9027V44.9194Z" fill="#231F20"/>
<path d="M46.6114 44.9194C46.6114 44.1664 46.0008 43.5559 45.2476 43.5559C44.4944 43.5559 43.8838 44.1664 43.8838 44.9194V47.9027C43.8838 48.6558 44.4944 49.2662 45.2476 49.2662C46.0008 49.2662 46.6114 48.6558 46.6114 47.9027V44.9194Z" fill="#231F20"/>
<path d="M51.0059 55.5767C49.8692 55.5751 48.7797 55.1226 47.9765 54.3185C47.1733 53.5144 46.7222 52.4245 46.7222 51.2881C46.7222 51.0563 46.8143 50.834 46.9782 50.6701C47.1422 50.5061 47.3645 50.4141 47.5964 50.4141C47.8282 50.4141 48.0506 50.5061 48.2146 50.6701C48.3785 50.834 48.4706 51.0563 48.4706 51.2881C48.4706 51.9603 48.7377 52.605 49.2132 53.0804C49.6886 53.5557 50.3335 53.8228 51.0059 53.8228C51.6783 53.8228 52.3231 53.5557 52.7986 53.0804C53.274 52.605 53.5411 51.9603 53.5411 51.2881C53.5411 51.0563 53.6332 50.834 53.7972 50.6701C53.9611 50.5061 54.1835 50.4141 54.4153 50.4141C54.6472 50.4141 54.8696 50.5061 55.0335 50.6701C55.1975 50.834 55.2896 51.0563 55.2896 51.2881C55.2896 52.4245 54.8384 53.5144 54.0352 54.3185C53.2321 55.1226 52.1425 55.5751 51.0059 55.5767Z" fill="#231F20"/>
</g>
<defs>
<clipPath id="clip0_1135_15319">
<rect width="60" height="60" fill="white" transform="translate(20.5 20)"/>
</clipPath>
</defs>
</svg>
