<svg width="80" height="80" viewBox="0 0 80 80" fill="none" xmlns="http://www.w3.org/2000/svg">
<g id="music">
<path id="Vector" d="M30.0001 63.3332V22.2999C29.9783 20.7068 30.5277 19.1586 31.5489 17.9357C32.5701 16.7127 33.9954 15.8959 35.5668 15.6332L62.2335 11.1999C63.1964 11.0387 64.183 11.091 65.1235 11.353C66.064 11.6151 66.9354 12.0805 67.6763 12.7164C68.4171 13.3523 69.0092 14.1432 69.4108 15.0331C69.8123 15.923 70.0135 16.8903 70.0001 17.8665V56.6665" stroke="#C6B8FF" stroke-width="7" stroke-linecap="round" stroke-linejoin="round"/>
<path id="Vector_2" d="M20 73.3333C25.5228 73.3333 30 68.8561 30 63.3333C30 57.8104 25.5228 53.3333 20 53.3333C14.4772 53.3333 10 57.8104 10 63.3333C10 68.8561 14.4772 73.3333 20 73.3333Z" stroke="#C6B8FF" stroke-width="7" stroke-linecap="round" stroke-linejoin="round"/>
<path id="Vector_3" d="M60 66.6667C65.5228 66.6667 70 62.1896 70 56.6667C70 51.1439 65.5228 46.6667 60 46.6667C54.4772 46.6667 50 51.1439 50 56.6667C50 62.1896 54.4772 66.6667 60 66.6667Z" stroke="#C6B8FF" stroke-width="7" stroke-linecap="round" stroke-linejoin="round"/>
</g>
</svg>
