<svg width="101" height="100" viewBox="0 0 101 100" fill="none" xmlns="http://www.w3.org/2000/svg">
<g clip-path="url(#clip0_1135_15674)">
<path d="M66.6937 76.6667C65.2774 76.6248 63.9285 76.066 62.9127 75.1004C61.9023 75.3289 60.8472 75.2828 59.8618 74.967C59.2873 74.8138 58.7573 74.5316 58.3142 74.1428C57.8711 73.7541 57.527 73.2695 57.3094 72.7278C57.3094 72.7278 56.977 72.3797 55.3981 72.1941C51.8901 71.7822 46.4946 72.6118 45.3965 73.3543C44.8312 74.1574 44.0157 74.7607 43.0713 75.0743C42.1269 75.3878 41.1041 75.395 40.1553 75.0946C39.4164 75.7564 38.5136 76.2185 37.5362 76.4351C36.5588 76.6518 35.5404 76.6157 34.5816 76.3302C33.5726 76.0112 31.3467 74.909 31.0915 71.3065C28.4679 71.3645 26.2539 70.448 24.8946 68.7657C23.4344 66.9499 23.1554 64.5773 24.028 62.0248C24.0021 61.1318 24.0418 60.2381 24.1467 59.3506C24.2357 58.6022 24.2357 58.6022 23.3157 57.6102C22.5214 56.6481 21.9757 55.5134 21.7247 54.3018C21.4736 53.0901 21.5246 51.8373 21.8733 50.649C22.3897 49.0943 23.7431 47.1161 27.2155 46.0081C26.49 44.9021 26.0514 43.64 25.9376 42.3309C25.8238 41.0219 26.0383 39.7055 26.5625 38.4958C27.1561 37.1093 29.0852 34.174 34.0712 34.7019C33.8356 33.7883 33.8247 32.8332 34.0393 31.9147C34.2539 30.9961 34.6879 30.1403 35.3058 29.4171C36.8194 27.7232 39.1462 27.1895 41.6807 27.9147C41.9835 25.5014 42.9747 24.7763 44.3755 24.0164L44.5892 23.9061C45.7703 23.3274 47.128 23.1937 48.4034 23.5308C49.6788 23.8678 50.7826 24.6519 51.5043 25.7335C52.3191 24.5501 53.5691 23.7191 54.9945 23.4131C56.6743 23.094 58.4194 23.7379 60.1882 25.2578C60.9138 25.9297 61.3758 26.8286 61.4941 27.7987C62.4697 27.4727 63.5161 27.4046 64.5272 27.6014C66.1002 27.9263 67.4238 28.9357 68.4804 30.5948C69.1583 31.8228 69.3201 33.2606 68.9315 34.6033C71.6797 34.406 75.1462 35.3864 76.5292 38.6002C77.0923 39.7804 77.3242 41.0857 77.2011 42.3823C77.078 43.679 76.6044 44.9203 75.8288 45.9791C77.6177 46.4303 79.1923 47.4712 80.2865 48.9261C81.5092 50.6258 81.812 52.7548 81.1768 55.081C80.8996 56.0388 80.4118 56.9259 79.7474 57.6803C79.0831 58.4348 78.2583 59.0385 77.3305 59.4492C78.3126 60.406 79.0002 61.613 79.315 62.9329C79.6298 64.2528 79.5592 65.6325 79.1112 66.9151C78.393 69.0673 76.5589 71.4979 71.9884 71.3007C71.9884 73.7023 70.8428 75.3614 68.427 76.336C67.8771 76.5565 67.2881 76.6688 66.6937 76.6667ZM63.1739 73.1861C63.2506 73.1748 63.3286 73.1748 63.4054 73.1861C63.5336 73.215 63.6534 73.2718 63.7562 73.3521C63.8589 73.4324 63.9419 73.5343 63.9989 73.6501C64.1236 73.83 65.8687 75.4601 67.7859 74.6769C69.7981 73.859 70.4926 72.6292 70.1602 70.419C70.1435 70.2977 70.1531 70.1745 70.1884 70.0571C70.2237 69.9398 70.2839 69.831 70.3652 69.738C70.4464 69.6449 70.5467 69.5697 70.6597 69.5171C70.7727 69.4645 70.8958 69.4358 71.0209 69.4328C71.1651 69.4222 71.3099 69.4222 71.4542 69.4328C73.4961 69.6358 76.3393 69.5372 77.4255 66.2944C78.7907 62.2337 75.2886 59.9133 75.1402 59.832C74.9953 59.7405 74.8807 59.6099 74.8104 59.4559C74.74 59.3019 74.717 59.1313 74.744 58.9648C74.7711 58.7982 74.847 58.643 74.9627 58.5178C75.0783 58.3927 75.2287 58.3031 75.3955 58.26C75.4311 58.26 78.7491 57.3434 79.4496 54.5647C79.96 52.7084 79.7523 51.1247 78.856 49.8426C78.2754 49.107 77.5398 48.502 76.699 48.0686C75.8582 47.6352 74.9318 47.3836 73.9828 47.3308C73.8036 47.3153 73.6334 47.2472 73.4946 47.1354C73.3558 47.0235 73.2549 46.8732 73.2052 46.7043C73.1535 46.5358 73.1559 46.3559 73.2121 46.1889C73.2684 46.0219 73.3758 45.8757 73.5198 45.7703C75.0749 44.6217 76.1256 42.1504 74.885 39.2557C73.6444 36.361 69.9465 35.8737 67.7266 36.564C67.5326 36.6259 67.3227 36.6208 67.1322 36.5496C66.9416 36.4784 66.7818 36.3453 66.6796 36.1727C66.5774 36.0001 66.5389 35.7984 66.5707 35.6015C66.6024 35.4045 66.7025 35.2241 66.854 35.0906C67.1271 34.6961 67.7681 32.7701 66.9609 31.4881C66.6748 30.9544 66.2795 30.4838 65.7996 30.1056C65.3197 29.7274 64.7654 29.4496 64.1711 29.2895C63.089 29.104 61.9748 29.3102 61.037 29.8696C60.8832 29.9675 60.7024 30.0171 60.519 30.0119C60.3355 30.0067 60.158 29.947 60.0102 29.8406C59.8641 29.734 59.7551 29.5862 59.6978 29.4171C59.6404 29.248 59.6376 29.0658 59.6896 28.895C59.7896 28.4713 59.7766 28.0295 59.6519 27.6121C59.5272 27.1946 59.2949 26.8154 58.9773 26.5108C57.6656 25.3506 56.425 24.8865 55.315 25.0838C53.8548 25.3448 52.828 26.7429 52.2225 27.8741C52.1422 28.0221 52.0201 28.1445 51.8707 28.2268C51.7213 28.309 51.5509 28.3477 51.3797 28.3381C51.206 28.3269 51.0396 28.2659 50.9013 28.1627C50.763 28.0595 50.6589 27.9188 50.6021 27.758C50.4211 27.1959 50.114 26.6802 49.7033 26.2487C49.2925 25.8172 48.7885 25.4806 48.2278 25.2636C47.3212 24.9405 46.3208 24.9801 45.444 25.3738L45.2303 25.4956C44.0431 26.1396 43.4496 26.4586 43.3605 29.1039C43.3548 29.2456 43.314 29.3839 43.2415 29.5068C43.169 29.6297 43.0671 29.7335 42.9445 29.8094C42.8219 29.8853 42.6823 29.931 42.5376 29.9425C42.3929 29.954 42.2476 29.931 42.114 29.8754C39.8585 28.9125 37.8582 29.1445 36.6413 30.5135C36.0669 31.1762 35.7191 31.9979 35.6467 32.8635C35.5743 33.729 35.781 34.595 36.2377 35.34C36.3309 35.4843 36.3786 35.6522 36.3749 35.8228C36.3713 35.9933 36.3164 36.1591 36.2171 36.2994C36.1178 36.4398 35.9784 36.5485 35.8164 36.612C35.6544 36.6756 35.4768 36.6911 35.3058 36.6569C31.8037 35.8621 29.2811 36.7555 28.183 39.1803C27.168 41.5007 27.7615 44.6507 29.4057 45.7239C29.5513 45.8189 29.665 45.9538 29.7326 46.1117C29.8002 46.2696 29.8186 46.4434 29.7856 46.6115C29.7537 46.7796 29.671 46.9346 29.5484 47.0565C29.4257 47.1785 29.2685 47.2619 29.0971 47.296C26.0639 47.9341 24.2061 49.2625 23.565 51.1711C23.3071 52.0696 23.2684 53.0146 23.4519 53.9304C23.6353 54.8462 24.036 55.7072 24.6216 56.4442C25.9096 57.8423 26.058 58.1845 25.8977 59.542C25.7995 60.4009 25.7697 61.2659 25.8087 62.1293C25.8137 62.2357 25.7976 62.3421 25.7612 62.4425C25.0311 64.4729 25.2211 66.3234 26.2895 67.6635C27.4291 69.0731 29.4591 69.7402 31.869 69.4966C31.9945 69.4848 32.1212 69.4988 32.2408 69.5378C32.3604 69.5767 32.4704 69.6398 32.5635 69.7228C32.6567 69.8067 32.7303 69.9091 32.7795 70.0232C32.8287 70.1373 32.8522 70.2604 32.8484 70.3842C32.8009 72.7046 33.5845 74.1664 35.1277 74.6479C36.671 75.1294 38.4933 74.4739 39.1284 73.5689C39.242 73.4104 39.4061 73.2932 39.5951 73.2355C39.7841 73.1777 39.9873 73.1828 40.1731 73.2499C42.7373 74.1838 43.8354 72.5131 43.9482 72.3217C43.9976 72.2395 44.0597 72.1651 44.1322 72.1013C45.7408 70.7032 53.5046 69.8563 56.9058 70.709C58.0573 70.9991 58.7399 71.4747 58.9892 72.1593C59.1202 72.4451 59.316 72.6981 59.5617 72.8991C59.8075 73.1001 60.0968 73.2439 60.4079 73.3195C61.1376 73.5738 61.9331 73.584 62.6693 73.3485C62.826 73.2424 63.013 73.1876 63.2036 73.1919L63.1739 73.1861Z" fill="#F0F0F5"/>
<path d="M80.535 58.6255C79.8703 57.0302 77.7928 58.8111 75.4838 58.6255C73.8574 58.4978 70.3316 56.7633 68.3609 55.7249C68.3609 55.7249 67.7258 55.5799 67.4231 55.5335C67.4231 55.5335 65.2625 54.5067 64.6808 52.633C62.8289 54.2805 59.1131 55.6263 57.7123 49.9877C52.6966 51.3335 48.2033 49.2626 47.9896 43.1193C47.9896 43.1193 37.5962 45.4397 35.7918 55.1042C34.8836 55.6031 29.5949 58.463 27.4818 58.6255C25.1728 58.8111 23.0894 57.0302 22.4246 58.6255C21.7598 60.2208 25.6833 63.2257 28.6215 63.3069C31.2391 63.3823 34.1832 59.8263 35.5128 57.7495C35.495 59.1112 35.6143 60.4714 35.869 61.8102C39.2701 60.4644 43.3776 63.2315 40.2376 67.3734C40.9654 67.1591 41.7419 67.1609 42.4685 67.3788C43.1952 67.5966 43.8392 68.0206 44.3188 68.5968C44.7984 69.1731 45.092 69.8757 45.1622 70.6153C45.2324 71.355 45.0761 72.0984 44.7131 72.751C48.9868 75.6515 56.3886 73.7546 58.2465 72.8554C56.7804 71.3298 58.662 66.2538 62.6389 67.5765C60.6149 64.4613 62.2591 59.9017 67.156 61.8102C67.7496 61.2881 67.7496 59.542 67.6843 58.028C69.1682 60.1279 71.8393 63.3881 74.3323 63.3185C77.2823 63.2257 81.1998 60.2266 80.535 58.6255Z" fill="#F0F0F5"/>
</g>
<defs>
<clipPath id="clip0_1135_15674">
<rect width="60" height="60" fill="white" transform="translate(21 20)"/>
</clipPath>
</defs>
</svg>
